<?xml version="1.0" standalone="no"?>
<!DOCTYPE svg PUBLIC "-//W3C//DTD SVG 20010904//EN"
 "http://www.w3.org/TR/2001/REC-SVG-20010904/DTD/svg10.dtd">
<svg version="1.0" xmlns="http://www.w3.org/2000/svg"
 width="203.000000pt" height="248.000000pt" viewBox="0 0 203.000000 248.000000"
 preserveAspectRatio="xMidYMid meet">

<g transform="translate(0.000000,248.000000) scale(0.100000,-0.100000)"
fill="#000000" stroke="none">
<path d="M1040 2438 c-49 -25 -47 -20 -42 -141 2 -38 3 -38 33 -32 30 7 30 6
19 -17 -7 -12 -19 -31 -27 -40 -8 -9 -12 -22 -7 -29 4 -7 3 -10 -3 -6 -6 4
-18 -4 -27 -18 -9 -14 -23 -25 -31 -25 -8 0 -22 -11 -31 -25 -9 -14 -21 -25
-27 -25 -26 0 -45 -32 -40 -66 4 -22 -1 -49 -11 -73 -15 -31 -16 -45 -7 -79
10 -36 9 -44 -13 -79 -47 -73 -70 -96 -113 -115 -52 -23 -55 -38 -7 -38 l36 0
-19 -28 c-10 -16 -35 -48 -55 -72 -42 -48 -56 -46 -78 13 -7 18 -16 41 -22 52
-6 14 -5 30 1 48 6 16 9 67 6 119 -4 80 -7 94 -31 120 -14 16 -29 27 -32 23
-4 -3 -1 -10 7 -14 7 -5 13 -12 13 -17 0 -5 4 -19 9 -32 16 -42 3 -72 -30 -72
-14 1 -14 2 1 10 15 9 15 13 2 39 -19 39 -38 53 -66 49 -32 -4 -29 -22 5 -26
19 -2 27 -9 27 -23 0 -22 -28 -26 -36 -4 -10 25 -37 18 -30 -8 4 -17 1 -23
-13 -24 -36 -3 -103 -24 -96 -31 3 -4 34 -12 68 -17 l62 -10 -37 -29 -38 -28
-35 31 c-24 21 -46 31 -68 31 -18 0 -39 5 -47 10 -13 8 -12 10 3 10 9 0 17 8
18 18 0 10 3 12 6 5 2 -7 17 -13 31 -13 l27 0 -22 18 c-16 13 -20 24 -16 45 8
41 44 61 94 53 25 -4 38 -3 34 3 -10 17 33 32 72 25 26 -5 34 -4 29 5 -4 6
-18 11 -32 11 -27 0 -169 -36 -193 -49 -8 -5 -31 -6 -51 -4 -21 3 -46 0 -56
-6 -15 -9 -10 -10 24 -5 28 4 42 3 42 -5 0 -12 -33 -21 -69 -18 -35 3 -66 -42
-54 -79 8 -24 17 -30 53 -36 23 -4 52 -15 62 -25 11 -10 22 -17 25 -15 3 2 11
-7 17 -20 7 -14 25 -26 49 -31 33 -8 52 -27 27 -27 -7 0 -7 -6 -1 -17 23 -43
41 -107 41 -144 0 -42 14 -79 30 -79 5 0 2 16 -6 35 -9 23 -14 70 -14 140 l0
105 -42 0 c-43 0 -78 14 -66 25 3 4 15 2 26 -4 30 -16 63 -13 84 6 20 18 20
18 21 -69 0 -21 5 -38 10 -38 5 0 7 -7 3 -15 -8 -22 2 -18 15 6 8 15 8 19 0
15 -13 -9 -14 4 -1 24 6 9 5 17 -3 22 -9 6 -6 13 8 24 11 8 18 18 17 22 -2 4
16 22 40 41 l43 33 -44 -41 c-54 -51 -44 -54 17 -4 39 32 43 33 28 11 -10 -15
-28 -34 -42 -43 -13 -8 -24 -20 -24 -26 0 -6 16 3 36 21 50 44 56 28 8 -22
-36 -38 -31 -44 9 -10 29 26 19 0 -15 -37 -27 -28 -28 -31 -8 -18 39 27 51 30
62 19 8 -8 2 -21 -21 -47 -34 -40 -42 -58 -12 -31 19 17 19 17 14 -4 -4 -17
-2 -21 8 -18 9 3 13 15 11 34 -3 22 -1 26 8 18 7 -7 13 -24 13 -38 2 -22 7
-26 31 -26 27 0 28 -1 22 -37 -19 -102 -126 -267 -126 -194 0 26 -15 34 -29
17 -8 -10 -9 -16 -1 -19 6 -3 5 -4 -2 -3 -8 2 -12 14 -10 32 3 27 3 28 -10 10
-13 -17 -15 -15 -26 23 -7 22 -17 43 -22 46 -13 8 14 -80 34 -110 8 -13 57
-44 108 -68 l93 -46 45 -138 c35 -109 46 -159 51 -238 3 -55 12 -143 19 -195
15 -120 8 -216 -22 -307 -14 -42 -19 -69 -12 -66 23 9 52 154 55 273 1 41 -6
113 -16 160 -13 64 -15 108 -10 177 5 79 4 96 -12 120 -10 15 -12 24 -5 20 17
-11 14 2 -9 43 -15 26 -18 29 -13 10 4 -14 4 -22 0 -19 -9 8 -56 169 -56 191
0 11 7 18 20 18 26 0 25 8 -3 30 -13 10 -32 34 -42 54 -16 29 -17 38 -6 48 11
11 12 9 9 -7 -2 -12 5 -27 19 -38 26 -21 51 -14 33 8 -7 8 -18 34 -25 58 -13
43 -12 47 25 124 37 76 70 120 70 94 0 -6 -5 -11 -12 -11 -6 0 -9 -3 -5 -6 3
-3 -3 -14 -13 -24 -15 -15 -17 -29 -13 -72 6 -62 13 -76 13 -26 0 20 10 50 23
69 12 19 23 45 24 58 2 25 53 86 53 64 0 -7 -4 -15 -10 -18 -15 -9 -12 -43 6
-70 12 -18 16 -53 17 -139 2 -109 1 -114 -15 -99 -12 11 -18 12 -18 4 0 -7 -4
-9 -10 -6 -6 3 -10 17 -10 30 0 13 -5 27 -12 31 -8 5 -9 -7 -5 -47 4 -30 7
-67 7 -82 0 -16 4 -26 9 -22 5 3 13 -25 17 -62 5 -53 3 -73 -9 -95 -11 -19
-14 -43 -10 -87 3 -33 1 -66 -4 -73 -5 -7 -8 -26 -8 -43 1 -16 -2 -38 -8 -49
-7 -14 -6 -17 4 -11 9 6 11 3 6 -8 -3 -10 -2 -17 3 -17 6 0 11 -19 12 -42 l1
-43 4 40 c6 57 20 64 28 14 6 -32 4 -45 -8 -53 -20 -15 -35 -102 -16 -91 11 6
12 5 2 -6 -15 -15 -17 -33 -4 -25 5 4 4 -10 -2 -30 -8 -28 -8 -37 2 -44 9 -5
11 -17 7 -34 -4 -15 -2 -34 3 -44 4 -9 12 -47 15 -83 6 -58 5 -67 -10 -73 -10
-4 -22 -2 -28 4 -17 17 -27 11 -16 -10 12 -22 42 -26 57 -7 15 18 8 609 -7
669 -15 58 -5 197 15 204 7 3 29 -2 49 -10 l36 -15 0 -147 c0 -128 2 -149 18
-161 16 -14 16 -14 -1 -9 -17 6 -18 1 -14 -51 2 -32 12 -78 21 -103 10 -24 22
-85 28 -134 13 -105 -2 -214 -35 -258 -18 -24 -28 -28 -72 -28 -28 0 -56 5
-63 12 -16 16 -29 -19 -15 -41 11 -17 6 -17 215 -6 110 6 141 5 154 -6 14 -11
17 -10 26 5 5 9 22 32 37 49 51 59 78 111 106 210 19 70 26 111 22 144 -6 53
10 113 24 91 5 -7 9 -23 9 -35 0 -14 6 -23 16 -23 10 0 13 6 10 18 -10 30 -25
164 -26 227 -1 33 -6 69 -11 80 -6 14 -8 -12 -8 -80 1 -55 1 -116 0 -135 -2
-34 -2 -34 -22 20 -44 121 -49 145 -51 267 -3 107 -5 120 -15 96 l-12 -28 -1
27 c0 15 4 29 9 32 5 3 11 16 14 28 6 23 6 23 -13 -2 l-18 -24 -4 27 c-1 15
-7 27 -12 26 -20 -2 -23 26 -5 50 11 14 25 60 33 101 7 41 17 84 21 95 6 15 2
13 -13 -7 -12 -14 -26 -37 -31 -50 -9 -21 -10 -21 -10 -3 -1 12 5 27 11 33 10
10 10 15 -2 23 -13 9 -12 10 3 5 21 -7 21 2 1 29 -12 16 -16 17 -23 6 -7 -11
-9 -11 -13 0 -3 8 -9 11 -13 7 -4 -4 0 -17 9 -30 18 -25 21 -42 7 -33 -6 3
-15 -3 -20 -14 -14 -26 -14 -34 1 -25 7 4 8 3 4 -4 -14 -24 -28 -12 -21 18 4
17 2 30 -3 30 -19 0 -20 65 -1 110 10 25 18 39 18 31 1 -10 12 -5 33 15 25 23
30 25 24 9 -6 -16 0 -13 24 10 17 17 42 30 56 30 29 1 29 1 7 -32 -10 -15 -12
-24 -5 -20 6 5 12 4 12 -1 0 -15 42 -2 68 22 l24 21 -7 -28 c-6 -22 -4 -26 9
-21 11 4 16 1 16 -10 0 -9 7 -16 15 -16 9 0 15 -10 16 -27 1 -21 2 -23 6 -8 3
11 9 24 14 30 14 14 11 25 -7 18 -10 -4 -17 1 -21 16 -3 11 -9 21 -14 21 -5 0
-9 7 -9 15 0 19 -17 19 -50 0 -27 -15 -54 -21 -31 -6 11 7 10 13 -4 35 -9 14
-21 23 -26 20 -5 -3 -9 -1 -9 5 0 34 79 29 145 -10 27 -16 34 -26 30 -40 -4
-13 -2 -17 7 -14 8 3 20 -11 30 -37 10 -23 21 -39 24 -35 3 3 -1 20 -10 38
-22 43 -20 45 10 12 l25 -28 -16 32 c-8 18 -29 48 -45 67 -17 18 -33 49 -37
67 -8 44 -62 181 -76 196 -7 6 -28 16 -47 20 -30 8 -35 14 -36 39 0 16 -6 47
-12 69 -6 22 -14 74 -18 115 -8 86 -29 133 -90 206 -28 33 -44 61 -44 78 0 30
-42 76 -69 76 -9 0 -37 -10 -61 -22z m105 -29 c4 -11 4 -23 1 -28 -13 -21 -86
17 -86 45 0 31 75 16 85 -17z m-77 -28 c20 -16 50 -31 67 -33 25 -3 31 -9 40
-42 7 -22 18 -42 26 -44 11 -4 12 -2 2 9 -7 7 -13 17 -13 22 0 15 30 -14 63
-62 25 -37 31 -57 34 -108 2 -58 -7 -82 -20 -49 -3 7 -37 26 -76 41 l-71 28 2
41 c2 30 -1 40 -11 38 -25 -5 -41 20 -41 65 0 37 -5 48 -30 70 -30 24 -40 53
-19 53 5 0 27 -13 47 -29z m308 -531 c24 -8 33 -19 36 -40 3 -16 1 -35 -4 -42
-5 -9 -8 -6 -8 10 0 12 -3 22 -6 22 -15 0 -44 -22 -44 -34 0 -17 -37 -10 -60
10 -9 7 -37 23 -64 34 -47 21 -47 22 -29 42 16 18 26 20 83 15 36 -3 79 -11
96 -17z m-1155 -47 c-8 -15 -10 -15 -11 -2 0 17 10 32 18 25 2 -3 -1 -13 -7
-23z m-21 -14 c0 -22 -11 -24 -28 -7 -9 9 -15 9 -24 0 -17 -17 -38 -15 -38 3
0 8 12 17 28 21 15 3 32 7 37 9 16 4 25 -5 25 -26z m938 -34 c-47 -45 -58 -62
-58 -87 0 -49 -20 -20 -23 32 -2 40 0 44 47 76 26 19 58 34 70 34 17 0 11 -10
-36 -55z m-698 15 c-8 -5 -19 -10 -25 -10 -5 0 -3 5 5 10 8 5 20 10 25 10 6 0
3 -5 -5 -10z m830 -10 c21 -21 28 -70 10 -70 -5 0 -11 12 -11 28 -2 24 -2 23
-9 -8 l-7 -35 -3 30 c-2 21 -4 24 -7 11 -4 -15 -7 -16 -14 -5 -7 11 -9 10 -9
-4 0 -10 -5 -15 -10 -12 -6 3 -13 -1 -16 -9 -3 -9 -10 -13 -15 -10 -5 3 -9 -5
-9 -18 0 -18 -2 -20 -10 -8 -8 12 -10 11 -10 -7 0 -13 -6 -23 -12 -23 -27 0
-41 19 -40 52 0 26 10 41 43 71 49 43 96 50 129 17z m-1130 -15 c-7 -9 -15
-13 -17 -11 -7 7 7 26 19 26 6 0 6 -6 -2 -15z m1177 -27 c-3 -8 -6 -5 -6 6 -1
11 2 17 5 13 3 -3 4 -12 1 -19z m148 -8 c3 -5 1 -10 -4 -10 -6 0 -11 5 -11 10
0 6 2 10 4 10 3 0 8 -4 11 -10z m-63 -42 c5 -10 5 -18 1 -18 -11 0 -32 48 -25
55 4 3 8 0 11 -7 2 -7 8 -21 13 -30z m-72 -13 c0 -2 -10 -10 -22 -16 -21 -11
-22 -11 -9 4 13 16 31 23 31 12z m-435 -35 c-22 -24 -18 -32 6 -18 17 10 23
10 26 1 6 -16 33 -17 33 -1 0 6 3 9 6 6 3 -4 -2 -20 -10 -37 -20 -38 -20 -55
0 -18 8 15 19 27 25 27 6 0 7 5 3 12 -4 6 -3 8 4 4 5 -3 12 -1 14 6 2 6 12 12
21 14 14 2 15 -1 6 -18 -6 -11 -8 -22 -6 -25 3 -2 10 5 17 16 6 12 15 21 21
21 5 0 1 -9 -10 -21 -11 -12 -17 -28 -14 -37 4 -10 2 -13 -5 -8 -7 4 -12 1
-12 -10 0 -15 -8 -16 -65 -10 -62 6 -65 6 -65 -16 0 -21 0 -21 -15 -2 -8 10
-15 15 -15 9 0 -5 -5 -3 -10 5 -13 20 -13 70 0 70 6 0 10 7 10 15 0 8 5 15 11
15 5 0 8 4 5 8 -2 4 4 8 14 8 17 0 18 -2 5 -16z m406 -18 c-25 -36 -51 -58
-51 -44 0 12 -18 11 -40 -3 -13 -8 -13 -7 -1 8 7 9 19 17 26 17 7 0 18 7 25
15 7 8 16 13 20 10 4 -3 13 2 20 10 22 26 22 16 1 -13z m-931 -56 c0 -26 -6
-18 -14 19 -5 22 -4 26 4 15 5 -8 10 -24 10 -34z m372 22 c-11 -13 -39 -62
-61 -110 -22 -49 -42 -88 -44 -88 -3 0 3 29 12 65 12 50 26 75 59 110 23 25
45 45 49 45 3 0 -3 -10 -15 -22z m386 -3 c-3 -13 -1 -26 3 -27 5 -2 2 -16 -7
-33 -9 -17 -12 -40 -9 -54 5 -21 4 -23 -9 -12 -9 8 -16 20 -16 27 0 8 -4 14
-9 14 -5 0 -7 -10 -5 -22 4 -21 4 -22 -5 -3 -5 11 -10 34 -10 50 1 17 3 24 6
18 9 -23 31 -13 42 18 14 40 14 39 -5 39 -11 0 -15 -6 -11 -20 5 -20 -7 -37
-16 -23 -10 17 13 53 34 53 17 0 20 -5 17 -25z m-146 -179 l1 -31 4 33 c4 33
10 37 37 26 11 -4 16 -19 16 -45 0 -47 -19 -53 -21 -6 l-1 32 -7 -30 c-3 -17
-14 -31 -24 -33 -14 -3 -17 4 -17 39 0 50 -16 42 -23 -11 l-4 -35 -3 40 c-2
39 -3 39 -9 10 -5 -23 -12 -29 -29 -28 -15 2 -22 -3 -22 -15 0 -15 11 -17 85
-18 l85 -2 0 42 c1 36 2 39 12 21 12 -19 12 -19 20 5 5 16 6 5 3 -30 -3 -41
-2 -49 5 -32 5 13 11 37 12 53 1 17 8 35 15 41 10 8 12 1 7 -38 -4 -27 -8 -51
-10 -52 -1 -2 4 -22 12 -44 12 -35 12 -42 -2 -64 -22 -32 -42 -31 -46 4 -3 25
-8 28 -88 45 -62 13 -91 15 -107 8 -22 -10 -23 -8 -23 27 0 20 5 55 10 77 5
23 5 44 0 50 -6 8 8 8 50 1 58 -9 60 -11 62 -40z m175 -68 c-3 -8 -6 -5 -6 6
-1 11 2 17 5 13 3 -3 4 -12 1 -19z m-569 -72 c-12 -25 -28 -46 -36 -46 -7 0
-12 6 -9 13 2 6 9 11 14 10 6 -1 18 16 28 38 10 21 20 37 22 35 2 -2 -6 -24
-19 -50z m612 51 c0 -2 -11 -18 -25 -37 -14 -19 -25 -29 -25 -24 0 5 10 22 22
37 20 25 28 32 28 24z m25 -46 c-9 -16 -25 -3 -18 15 4 10 9 12 15 6 6 -6 7
-15 3 -21z m-331 -12 c-3 -6 -2 -14 4 -18 7 -4 6 -13 -4 -25 -13 -19 -14 -18
-14 10 0 17 3 34 7 37 10 11 15 8 7 -4z m66 -9 c0 -5 -5 -10 -11 -10 -5 0 -7
5 -4 10 3 6 8 10 11 10 2 0 4 -4 4 -10z m105 -9 c3 -5 1 -12 -5 -16 -5 -3 -10
1 -10 9 0 18 6 21 15 7z m115 -26 c-7 -8 -18 -15 -24 -15 -6 0 -17 -9 -24 -20
-7 -11 -16 -20 -22 -20 -5 0 3 12 17 28 14 15 29 26 34 25 5 -2 9 2 9 7 0 6 5
10 11 10 8 0 8 -5 -1 -15z m-236 -10 c-17 -13 -15 -13 18 -3 21 6 41 9 44 5
12 -11 -6 -25 -41 -31 -20 -4 -33 -11 -30 -16 3 -5 31 2 62 15 31 14 58 23 60
21 5 -4 -66 -38 -106 -51 -16 -5 -23 -1 -31 19 -12 33 -3 56 23 56 20 0 20 0
1 -15z m-84 -19 c0 -3 -4 -8 -10 -11 -5 -3 -10 -1 -10 4 0 6 5 11 10 11 6 0
10 -2 10 -4z m200 -20 c0 -6 -93 -37 -97 -32 -2 2 15 11 39 19 47 17 58 19 58
13z m70 -20 c0 -3 -4 -8 -10 -11 -5 -3 -10 -1 -10 4 0 6 5 11 10 11 6 0 10 -2
10 -4z m-60 -20 c0 -18 -6 -21 -45 -29 l-30 -6 33 14 c35 17 43 30 12 21 -11
-3 -30 -8 -42 -11 -22 -5 -21 -5 2 9 32 20 70 20 70 2z m82 -10 c7 4 8 2 4 -4
-4 -6 -13 -9 -21 -6 -8 4 -12 11 -8 17 5 8 8 7 11 -1 2 -7 9 -9 14 -6z m-87
-36 c-3 -5 -18 -10 -33 -9 l-27 1 25 8 c35 11 42 11 35 0z m183 -68 c17 -31
26 -69 33 -141 5 -54 18 -124 29 -156 32 -94 28 -232 -10 -342 -17 -47 -41
-106 -55 -130 -25 -42 -27 -43 -79 -43 -30 0 -66 3 -82 6 -28 5 -29 8 -26 53
2 27 -6 95 -19 152 -30 142 -37 345 -15 472 9 52 16 108 16 124 0 39 21 48
113 48 l72 -1 23 -42z m-250 -89 c-14 -16 -32 -41 -40 -57 -8 -16 -18 -25 -21
-19 -7 10 62 102 77 103 6 0 -2 -12 -16 -27z m2 -38 c-7 -9 -15 -13 -17 -11
-7 7 7 26 19 26 6 0 6 -6 -2 -15z m-35 -65 c-10 -11 -13 -20 -7 -20 6 0 14 5
17 10 3 6 12 10 18 9 9 0 9 -2 0 -6 -7 -2 -13 -10 -13 -17 0 -7 -7 -13 -15
-13 -8 0 -15 4 -15 9 0 5 -6 6 -12 2 -9 -5 -9 -2 1 9 7 9 10 17 5 17 -12 0 18
20 30 20 5 0 1 -9 -9 -20z m-159 -18 c0 -10 -6 -19 -13 -19 -16 0 -17 9 -1 25
15 15 14 15 14 -6z m174 -42 c0 -5 -4 -10 -10 -10 -5 0 -10 5 -10 10 0 6 5 10
10 10 6 0 10 -4 10 -10z m2 -37 c-11 -20 -7 -58 13 -153 27 -125 39 -216 41
-310 1 -78 0 -91 -11 -77 -11 16 -13 16 -19 2 -4 -11 -15 -15 -33 -13 -35 4
-41 25 -11 37 23 8 24 13 26 130 3 120 -13 252 -41 329 -11 31 -10 36 12 53
29 24 34 24 23 2z"/>
<path d="M1101 2284 c0 -11 3 -14 6 -6 3 7 2 16 -1 19 -3 4 -6 -2 -5 -13z"/>
<path d="M1122 2280 c0 -14 2 -19 5 -12 2 6 2 18 0 25 -3 6 -5 1 -5 -13z"/>
<path d="M1230 2194 c0 -5 7 -19 15 -30 8 -10 15 -14 15 -8 0 5 -7 19 -15 30
-8 10 -15 14 -15 8z"/>
<path d="M1285 1840 c-3 -5 1 -10 9 -10 8 0 18 5 21 10 3 6 -1 10 -9 10 -8 0
-18 -4 -21 -10z"/>
<path d="M993 1575 c-21 -34 -21 -35 -3 -35 11 0 20 3 21 8 0 4 2 19 4 35 2
15 3 27 2 27 -1 -1 -12 -16 -24 -35z"/>
<path d="M911 1374 c0 -11 3 -14 6 -6 3 7 2 16 -1 19 -3 4 -6 -2 -5 -13z"/>
<path d="M920 1301 c0 -6 17 -11 38 -11 20 0 55 -5 76 -10 22 -5 46 -5 54 -1
9 5 -11 11 -54 15 -38 4 -79 10 -91 13 -14 3 -23 0 -23 -6z"/>
<path d="M1106 1234 c-4 -9 -4 -19 -1 -22 2 -3 7 3 11 12 4 9 4 19 1 22 -2 3
-7 -3 -11 -12z"/>
<path d="M302 1848 c3 -7 18 -14 34 -16 28 -2 28 -2 10 13 -24 18 -49 20 -44
3z"/>
<path d="M280 1825 c0 -18 43 -30 67 -19 15 6 14 8 -7 12 -14 2 -29 8 -34 13
-15 13 -26 11 -26 -6z"/>
<path d="M520 1555 c-13 -14 -19 -25 -13 -25 6 0 18 11 27 25 9 14 15 25 13
25 -2 0 -14 -11 -27 -25z"/>
<path d="M1299 1553 c-13 -16 -12 -17 4 -4 9 7 17 15 17 17 0 8 -8 3 -21 -13z"/>
<path d="M221 1474 c0 -11 3 -14 6 -6 3 7 2 16 -1 19 -3 4 -6 -2 -5 -13z"/>
<path d="M1584 1475 c-4 -10 -1 -54 6 -98 9 -56 11 -122 6 -223 -7 -143 -2
-172 24 -123 7 11 14 18 17 15 3 -3 1 -12 -6 -19 -6 -8 -9 -23 -5 -33 5 -15 4
-16 -5 -4 -8 12 -11 12 -17 -3 -3 -9 -10 -17 -15 -17 -4 0 -6 6 -3 14 3 7 -2
16 -10 19 -12 5 -13 12 -5 37 18 50 6 305 -16 360 -30 74 -41 78 -41 15 0 -30
3 -55 7 -55 17 0 19 -71 2 -102 -9 -18 -16 -36 -15 -41 1 -4 -9 -12 -23 -17
-26 -10 -34 -22 -12 -19 34 4 41 0 25 -18 -8 -10 -22 -45 -32 -78 -10 -33 -30
-82 -43 -109 -24 -48 -25 -53 -19 -210 3 -89 8 -178 12 -198 6 -36 5 -38 -20
-38 -29 0 -34 -17 -11 -34 14 -10 13 -14 -5 -34 -12 -12 -19 -26 -16 -31 3 -5
-3 -20 -14 -33 -11 -14 -17 -28 -13 -31 3 -4 1 -12 -4 -19 -8 -11 -45 -100
-49 -120 -1 -5 -3 -11 -4 -15 -1 -5 -3 -12 -4 -18 -10 -43 -33 -75 -53 -75
-13 0 -23 -4 -23 -10 0 -5 9 -10 20 -10 14 0 20 -7 20 -23 0 -13 2 -26 5 -28
10 -11 307 32 398 58 13 3 17 0 15 -13 -3 -18 46 -42 90 -43 18 -1 22 4 22 27
-1 23 -2 24 -11 10 -12 -22 -29 -23 -29 -3 0 8 -4 15 -10 15 -5 0 -10 -7 -10
-15 0 -17 -9 -19 -29 -6 -11 7 -10 11 5 20 15 8 16 13 6 19 -11 7 -11 18 0 58
l13 49 6 -40 c5 -34 6 -30 7 25 1 36 -3 84 -7 108 -5 23 -6 40 -2 37 6 -7 42
-198 42 -227 0 -10 6 -18 14 -18 7 0 15 -4 17 -10 2 -5 29 9 61 33 l57 42 -22
17 -23 17 25 9 c14 5 40 13 57 16 80 18 32 44 -95 53 -76 6 -82 5 -76 -12 5
-13 3 -16 -7 -13 -11 4 -15 42 -19 184 -5 152 -9 188 -28 242 -33 91 -52 277
-52 505 0 175 -2 202 -19 236 -27 51 -49 69 -57 46z m53 -107 c-3 -8 -6 -5 -6
6 -1 11 2 17 5 13 3 -3 4 -12 1 -19z m-6 -141 c-10 -9 -11 -8 -5 6 3 10 9 15
12 12 3 -3 0 -11 -7 -18z m9 -151 c0 -2 -8 -10 -17 -17 -16 -13 -17 -12 -4 4
13 16 21 21 21 13z m-120 -85 c10 -20 23 -56 30 -81 7 -25 26 -76 42 -115 22
-51 33 -94 38 -160 5 -56 16 -108 30 -138 13 -30 23 -78 27 -131 l6 -83 -39
-6 c-22 -4 -64 -7 -95 -7 -31 0 -77 -3 -103 -6 -41 -6 -44 -8 -29 -20 10 -7
16 -14 13 -16 -11 -9 -140 -35 -140 -29 0 12 44 120 95 234 l48 108 -16 93
c-23 127 -21 205 7 308 13 47 27 91 31 97 10 16 32 -3 55 -48z m100 -46 c-13
-16 -30 -11 -30 8 0 7 4 6 10 -3 8 -12 10 -12 16 3 3 10 9 16 12 13 3 -3 -1
-12 -8 -21z m4 -26 c-19 -21 -19 -22 4 -15 16 5 22 3 22 -8 0 -8 -4 -18 -10
-21 -5 -3 -10 -11 -10 -17 0 -6 7 -5 18 3 15 13 16 12 3 -3 -7 -10 -17 -15
-22 -12 -5 3 -6 -2 -3 -11 5 -13 9 -13 23 -3 14 12 14 11 2 -4 -7 -10 -17 -16
-21 -13 -5 3 -10 -2 -12 -11 -2 -11 -9 -3 -21 22 -10 21 -13 34 -6 27 10 -10
15 -9 25 5 18 23 17 32 -1 32 -8 0 -15 3 -15 7 0 8 31 43 38 43 3 0 -3 -10
-14 -21z m40 -171 c3 -15 2 -30 -4 -33 -5 -3 -10 -2 -10 3 0 5 -3 25 -6 43 -8
41 10 29 20 -13z m46 -116 c11 -29 18 -52 16 -52 -9 0 -43 67 -48 94 -8 40 9
18 32 -42z m-40 27 c0 -5 -4 -9 -10 -9 -5 0 -10 7 -10 16 0 8 5 12 10 9 6 -3
10 -10 10 -16z m3 -42 c10 -16 12 -33 7 -62 -4 -23 -8 -30 -9 -17 0 13 -5 21
-10 18 -10 -6 -21 26 -21 62 0 28 14 28 33 -1z m47 -121 c0 -8 -4 -18 -10 -21
-5 -3 -10 3 -10 14 0 12 5 21 10 21 6 0 10 -6 10 -14z m-13 -83 c-3 -10 -5 -2
-5 17 0 19 2 27 5 18 2 -10 2 -26 0 -35z m-149 -310 c-10 -2 -26 -2 -35 0 -10
3 -2 5 17 5 19 0 27 -2 18 -5z"/>
<path d="M445 1420 c9 -77 9 -84 1 -109 -7 -20 -5 -23 8 -18 8 3 18 2 21 -3
11 -18 27 -11 20 8 -4 9 -18 51 -31 92 -20 64 -23 68 -19 30z"/>
<path d="M231 1434 c0 -11 3 -14 6 -6 3 7 2 16 -1 19 -3 4 -6 -2 -5 -13z"/>
<path d="M1356 1435 c-3 -8 -1 -15 4 -15 6 0 10 7 10 15 0 8 -2 15 -4 15 -2 0
-6 -7 -10 -15z"/>
<path d="M241 1403 c-2 -25 41 -124 66 -154 34 -40 94 -69 140 -68 l38 1 -42
8 c-90 18 -143 66 -178 161 -13 35 -24 59 -24 52z"/>
<path d="M556 1338 c-12 -31 -15 -52 -9 -63 8 -14 11 -12 21 10 7 15 8 24 2
20 -13 -8 -13 11 1 36 6 11 9 25 6 32 -2 6 -12 -9 -21 -35z"/>
<path d="M1469 1324 c-21 -22 -21 -24 -4 -18 15 5 12 -2 -12 -27 -23 -25 -36
-50 -43 -88 -5 -30 -17 -67 -25 -84 -13 -25 -13 -28 0 -17 18 15 20 -1 3 -18
-7 -7 -8 -12 -2 -12 6 0 10 -20 8 -47 -3 -48 -3 -48 7 -13 6 19 12 47 12 61 1
15 10 36 20 46 20 23 23 38 5 27 -9 -5 -9 -2 1 9 12 15 11 17 -3 17 -20 0 -20
2 -2 45 8 18 11 37 8 41 -4 4 -2 4 4 1 6 -3 28 13 50 36 l39 42 -42 -40 c-53
-48 -57 -35 -5 19 20 22 28 34 18 26 -18 -14 -19 -13 -13 3 9 23 5 22 -24 -9z"/>
<path d="M1405 1280 c-3 -5 -1 -10 4 -10 6 0 11 5 11 10 0 6 -2 10 -4 10 -3 0
-8 -4 -11 -10z"/>
<path d="M1495 1260 c-10 -11 -16 -22 -13 -25 3 -3 13 4 23 15 10 11 16 22 13
25 -3 3 -13 -4 -23 -15z"/>
<path d="M1450 1215 c-7 -9 -11 -18 -8 -20 3 -3 11 1 18 10 7 9 11 18 8 20 -3
3 -11 -1 -18 -10z"/>
<path d="M746 1081 c-3 -22 -2 -50 3 -63 9 -20 10 -18 11 17 0 22 3 50 6 63 4
12 2 22 -4 22 -5 0 -12 -18 -16 -39z"/>
<path d="M1292 1015 c-1 -16 5 -41 13 -55 8 -14 14 -35 15 -47 0 -13 5 -23 10
-23 12 0 4 39 -16 85 -7 17 -15 39 -17 50 -3 13 -5 10 -5 -10z"/>
<path d="M790 300 c0 -5 5 -10 10 -10 6 0 10 5 10 10 0 6 -4 10 -10 10 -5 0
-10 -4 -10 -10z"/>
<path d="M642 150 c-19 -12 -50 -20 -77 -20 -85 0 -52 -15 38 -18 51 -1 103
-3 116 -5 13 -1 26 4 28 11 3 8 -9 12 -41 12 -24 0 -48 5 -51 10 -3 6 1 10 9
10 8 0 18 5 21 10 10 16 -7 12 -43 -10z"/>
<path d="M1104 110 c-12 -4 -24 -16 -28 -26 -6 -17 -6 -17 12 -1 10 9 28 17
40 17 12 0 22 5 22 10 0 12 -17 12 -46 0z"/>
<path d="M1600 70 c0 -5 7 -10 15 -10 8 0 15 5 15 10 0 6 -7 10 -15 10 -8 0
-15 -4 -15 -10z"/>
<path d="M1116 46 c7 -18 69 -23 79 -6 3 6 0 10 -8 10 -8 0 -29 3 -46 6 -26 6
-30 4 -25 -10z"/>
<path d="M1015 40 c-3 -6 4 -10 17 -10 13 0 34 -3 48 -6 23 -5 23 -5 -4 10
-33 18 -52 20 -61 6z"/>
</g>
</svg>
