<?xml version="1.0" encoding="UTF-8"?>
<svg xmlns="http://www.w3.org/2000/svg" width="213" height="51" viewBox="0 0 213 51" fill="none">
  <mask id="mask0_640_20598" style="mask-type:alpha" maskUnits="userSpaceOnUse" x="54" y="6" width="158" height="37">
    <path d="M68.0873 18.2436C68.5191 18.7234 68.8358 19.2511 69.0373 19.8269C69.2484 20.393 69.354 21.0551 69.354 21.8131C69.354 23.6171 68.6871 25.1044 67.3533 26.2751C66.0195 27.4457 64.3643 28.031 62.3876 28.031C61.476 28.031 60.5645 27.8919 59.6529 27.6136C58.7413 27.3258 57.9545 26.9803 57.2924 26.5773L56.6735 27.628H55.522L55.3205 20.6329H56.4864C56.7262 21.4965 57.0045 22.2785 57.3212 22.979C57.6474 23.6699 58.0744 24.3176 58.6022 24.9221C59.1011 25.4882 59.6817 25.9392 60.3438 26.2751C61.0154 26.6109 61.7927 26.7788 62.6755 26.7788C63.3376 26.7788 63.9133 26.6925 64.4027 26.5198C64.9016 26.347 65.3046 26.1023 65.6117 25.7857C65.9188 25.469 66.1442 25.0996 66.2882 24.6774C66.4417 24.2456 66.5185 23.7514 66.5185 23.1949C66.5185 22.3793 66.2882 21.6212 65.8276 20.9208C65.367 20.2107 64.6809 19.6733 63.7694 19.3087C63.1456 19.0592 62.4308 18.7858 61.6248 18.4883C60.8187 18.1812 60.1231 17.8934 59.5377 17.6247C58.3863 17.1065 57.4891 16.4301 56.8462 15.5952C56.2129 14.7508 55.8962 13.6522 55.8962 12.2992C55.8962 11.5219 56.0546 10.7975 56.3712 10.1258C56.6879 9.45411 57.1388 8.85439 57.7242 8.32664C58.2807 7.82767 58.938 7.43905 59.6961 7.16078C60.4541 6.87291 61.2457 6.72898 62.0709 6.72898C63.0113 6.72898 63.8509 6.87291 64.5898 7.16078C65.3382 7.44865 66.0195 7.78449 66.6336 8.16831L67.2237 7.18957H68.3752L68.4904 13.9688H67.3245C67.1134 13.1916 66.8735 12.4479 66.6048 11.7378C66.3458 11.0278 66.0051 10.3849 65.5829 9.80915C65.1703 9.25261 64.6665 8.81121 64.0716 8.48496C63.4767 8.14912 62.7474 7.9812 61.8838 7.9812C60.9723 7.9812 60.195 8.27386 59.5521 8.85919C58.9092 9.44452 58.5878 10.1594 58.5878 11.0038C58.5878 11.8866 58.7941 12.6206 59.2067 13.206C59.6193 13.7817 60.219 14.2567 61.0058 14.6309C61.7063 14.9667 62.3924 15.2594 63.0641 15.5089C63.7454 15.7488 64.4027 16.0079 65.036 16.2861C65.6117 16.5356 66.1634 16.8187 66.6912 17.1353C67.2285 17.452 67.6939 17.8214 68.0873 18.2436Z" fill="url(#paint0_linear_640_20598)"></path>
    <path d="M80.8542 27.6136H71.6569V26.5917C71.916 26.5725 72.2902 26.5437 72.7796 26.5054C73.2689 26.467 73.6144 26.4094 73.8159 26.3326C74.1325 26.2079 74.3628 26.04 74.5067 25.8289C74.6507 25.6082 74.7226 25.3059 74.7226 24.9221V10.1258C74.7226 9.78995 74.6699 9.51168 74.5643 9.29099C74.4588 9.06069 74.2093 8.86878 73.8159 8.71526C73.528 8.60011 73.1634 8.49456 72.722 8.3986C72.2902 8.29305 71.9351 8.23068 71.6569 8.21149V7.18957H80.8542V8.21149C80.5567 8.22109 80.2017 8.25947 79.7891 8.32664C79.3765 8.38421 79.0166 8.46097 78.7096 8.55693C78.345 8.67208 78.1003 8.85919 77.9755 9.11827C77.8508 9.37735 77.7884 9.66521 77.7884 9.98186V24.7638C77.7884 25.0804 77.8556 25.3635 77.9899 25.613C78.1339 25.8529 78.3737 26.0448 78.7096 26.1887C78.9111 26.2655 79.2373 26.3518 79.6883 26.4478C80.1489 26.5341 80.5375 26.5821 80.8542 26.5917V27.6136Z" fill="url(#paint1_linear_640_20598)"></path>
    <path d="M99.8101 21.5397L99.3783 27.6136H83.4162V26.5917C83.6465 26.5725 83.9775 26.5389 84.4093 26.491C84.8507 26.443 85.1578 26.3806 85.3305 26.3039C85.6184 26.1791 85.8247 25.9968 85.9494 25.7569C86.0837 25.517 86.1509 25.21 86.1509 24.8357V10.2122C86.1509 9.88591 86.0933 9.59804 85.9782 9.34856C85.8726 9.09908 85.6567 8.89757 85.3305 8.74404C85.1098 8.6289 84.7979 8.51855 84.3949 8.413C84.0015 8.29785 83.6753 8.23068 83.4162 8.21149V7.18957H92.0378V8.21149C91.7691 8.22109 91.4189 8.26906 90.9871 8.35542C90.5649 8.44178 90.2578 8.51855 90.0659 8.58572C89.7396 8.70086 89.5141 8.89757 89.3894 9.17584C89.2743 9.45411 89.2167 9.75157 89.2167 10.0682V23.785C89.2167 24.4183 89.2455 24.9125 89.303 25.2675C89.3702 25.613 89.5189 25.8817 89.7492 26.0736C89.9699 26.2463 90.2962 26.3614 90.728 26.419C91.1694 26.467 91.7835 26.491 92.5703 26.491C92.9254 26.491 93.2948 26.4814 93.6786 26.4622C94.0624 26.443 94.4271 26.4046 94.7725 26.347C95.1083 26.2895 95.4154 26.2127 95.6937 26.1167C95.9815 26.0112 96.1926 25.8816 96.327 25.7281C96.7204 25.2867 97.1762 24.6198 97.6943 23.7275C98.2221 22.8255 98.5867 22.0962 98.7882 21.5397H99.8101Z" fill="url(#paint2_linear_640_20598)"></path>
    <path d="M121.026 27.6136H115.297C114.194 25.9056 112.966 24.212 111.613 22.5328C110.269 20.844 108.859 19.208 107.381 17.6247H107.007V24.735C107.007 25.0516 107.064 25.3347 107.18 25.5842C107.304 25.8337 107.525 26.0352 107.842 26.1887C107.995 26.2559 108.278 26.3374 108.691 26.4334C109.113 26.5293 109.463 26.5821 109.742 26.5917V27.6136H101.264V26.5917C101.485 26.5725 101.806 26.5437 102.228 26.5054C102.65 26.467 102.948 26.4094 103.121 26.3326C103.408 26.2079 103.615 26.0256 103.74 25.7857C103.874 25.5362 103.941 25.2387 103.941 24.8933V10.1546C103.941 9.82834 103.883 9.54527 103.768 9.30538C103.663 9.06549 103.447 8.86878 103.121 8.71526C102.862 8.59051 102.554 8.48017 102.199 8.38421C101.844 8.28825 101.533 8.23068 101.264 8.21149V7.18957H109.742V8.21149C109.473 8.22109 109.137 8.26427 108.734 8.34103C108.331 8.41779 108.034 8.48976 107.842 8.55693C107.515 8.67208 107.295 8.86399 107.18 9.13266C107.064 9.40134 107.007 9.694 107.007 10.0107V17.0634H107.295C108.158 16.3341 109.007 15.5761 109.842 14.7892C110.677 13.9928 111.435 13.2012 112.116 12.4143C112.874 11.5411 113.426 10.8455 113.772 10.3273C114.127 9.79955 114.304 9.33417 114.304 8.93115C114.304 8.78722 114.213 8.67208 114.031 8.58572C113.858 8.48976 113.656 8.413 113.426 8.35542C113.158 8.29785 112.918 8.26427 112.707 8.25467C112.495 8.23548 112.323 8.22109 112.188 8.21149V7.18957H119.846V8.21149C119.817 8.21149 119.754 8.21629 119.658 8.22588C119.563 8.23548 119.452 8.24507 119.327 8.25467C119.193 8.26427 119.059 8.28346 118.924 8.31224C118.79 8.34103 118.617 8.37461 118.406 8.413C118.07 8.48976 117.72 8.6145 117.356 8.78722C117.001 8.95035 116.708 9.15665 116.478 9.40613C115.489 10.5288 114.458 11.6899 113.383 12.8893C112.308 14.0887 111.243 15.1826 110.188 16.171C111.646 17.8214 112.85 19.2415 113.8 20.4314C114.76 21.6212 115.777 22.8926 116.852 24.2456C117.264 24.7638 117.677 25.1812 118.09 25.4978C118.502 25.8049 118.857 26.0352 119.155 26.1887C119.404 26.3134 119.716 26.4094 120.09 26.4766C120.465 26.5437 120.776 26.5821 121.026 26.5917V27.6136Z" fill="url(#paint3_linear_640_20598)"></path>
    <path d="M148.675 27.6136H143.177C141.958 25.7041 140.855 24.0537 139.867 22.6624C138.888 21.271 137.823 19.8365 136.671 18.3588H134.584V24.8357C134.584 25.1716 134.637 25.469 134.743 25.7281C134.848 25.9776 135.074 26.1695 135.419 26.3039C135.592 26.371 135.894 26.4334 136.326 26.491C136.758 26.5485 137.122 26.5821 137.42 26.5917V27.6136H128.784V26.5917C129.014 26.5725 129.345 26.5389 129.777 26.491C130.218 26.443 130.525 26.3806 130.698 26.3039C130.986 26.1791 131.192 25.9968 131.317 25.7569C131.451 25.517 131.519 25.21 131.519 24.8357V10.0682C131.519 9.73238 131.471 9.43492 131.375 9.17584C131.279 8.91676 131.053 8.72005 130.698 8.58572C130.458 8.49936 130.146 8.42259 129.763 8.35542C129.379 8.27866 129.053 8.23068 128.784 8.21149V7.18957H138.211C139.075 7.18957 139.886 7.28072 140.644 7.46304C141.402 7.63576 142.088 7.91883 142.702 8.31224C143.297 8.69606 143.772 9.19983 144.127 9.82354C144.482 10.4377 144.66 11.1813 144.66 12.0545C144.66 12.8413 144.54 13.537 144.3 14.1415C144.06 14.746 143.705 15.269 143.235 15.7104C142.803 16.123 142.285 16.4828 141.68 16.7899C141.076 17.0874 140.409 17.3416 139.68 17.5527C140.687 18.8865 141.522 20.0092 142.184 20.9208C142.856 21.8323 143.676 22.9406 144.645 24.2456C145.067 24.8213 145.446 25.2483 145.782 25.5266C146.128 25.7953 146.468 26.016 146.804 26.1887C147.054 26.3134 147.366 26.4094 147.74 26.4766C148.114 26.5437 148.426 26.5821 148.675 26.5917V27.6136ZM141.104 12.3855C141.104 11.1477 140.749 10.169 140.039 9.44931C139.329 8.72005 138.327 8.35542 137.031 8.35542H134.584V17.1209H136.47C137.794 17.1209 138.898 16.6987 139.78 15.8543C140.663 15.0003 141.104 13.8441 141.104 12.3855Z" fill="url(#paint4_linear_640_20598)"></path>
    <path d="M165.976 9.60764C166.878 10.548 167.583 11.6851 168.092 13.0188C168.6 14.343 168.855 15.8111 168.855 17.4232C168.855 19.0448 168.596 20.5178 168.078 21.8419C167.559 23.1661 166.84 24.2936 165.919 25.2244C165.026 26.1455 163.99 26.8556 162.81 27.3546C161.629 27.8535 160.372 28.103 159.039 28.103C157.618 28.103 156.304 27.8391 155.095 27.3114C153.895 26.774 152.864 26.0304 152 25.0804C151.137 24.1497 150.455 23.0222 149.956 21.698C149.467 20.3642 149.222 18.9393 149.222 17.4232C149.222 15.7632 149.481 14.2855 150 12.9901C150.518 11.6851 151.233 10.5576 152.144 9.60764C153.046 8.66728 154.092 7.94761 155.282 7.44865C156.481 6.94968 157.734 6.7002 159.039 6.7002C160.391 6.7002 161.668 6.95448 162.867 7.46304C164.067 7.9716 165.103 8.68647 165.976 9.60764ZM163.831 24.0873C164.369 23.2141 164.757 22.2258 164.997 21.1223C165.247 20.0188 165.372 18.7858 165.372 17.4232C165.372 16.0222 165.232 14.7364 164.954 13.5658C164.685 12.3951 164.287 11.3972 163.76 10.572C163.232 9.75637 162.57 9.12307 161.773 8.67208C160.977 8.21149 160.065 7.9812 159.039 7.9812C157.887 7.9812 156.908 8.24507 156.102 8.77283C155.296 9.30058 154.639 10.0059 154.13 10.8886C153.651 11.733 153.291 12.7214 153.051 13.8537C152.821 14.9859 152.705 16.1758 152.705 17.4232C152.705 18.805 152.83 20.0524 153.08 21.1654C153.329 22.2785 153.723 23.2669 154.26 24.1305C154.778 24.9749 155.431 25.637 156.217 26.1167C157.004 26.5869 157.945 26.822 159.039 26.822C160.065 26.822 160.991 26.5821 161.816 26.1023C162.642 25.6226 163.313 24.9509 163.831 24.0873Z" fill="url(#paint5_linear_640_20598)"></path>
    <path d="M190.459 27.6136H181.953V26.5917C182.701 26.5437 183.32 26.4478 183.809 26.3039C184.308 26.1599 184.558 25.9824 184.558 25.7713C184.558 25.6849 184.548 25.5794 184.529 25.4546C184.51 25.3299 184.481 25.2196 184.443 25.1236L182.744 20.5465H175.591C175.322 21.2182 175.101 21.8036 174.929 22.3025C174.766 22.8015 174.617 23.2621 174.483 23.6843C174.358 24.0969 174.271 24.4327 174.223 24.6918C174.175 24.9509 174.151 25.162 174.151 25.3251C174.151 25.7089 174.454 26.0064 175.058 26.2175C175.663 26.4286 176.344 26.5533 177.102 26.5917V27.6136H169.416V26.5917C169.666 26.5725 169.977 26.5198 170.352 26.4334C170.726 26.3374 171.033 26.2127 171.273 26.0592C171.657 25.8001 171.954 25.5314 172.165 25.2531C172.376 24.9653 172.583 24.5719 172.784 24.0729C173.811 21.5109 174.943 18.6322 176.181 15.4369C177.419 12.2416 178.522 9.39654 179.491 6.9017H180.643L187.451 24.5191C187.595 24.8933 187.758 25.1956 187.94 25.4259C188.123 25.6562 188.377 25.8816 188.703 26.1023C188.924 26.2367 189.212 26.3518 189.567 26.4478C189.922 26.5341 190.219 26.5821 190.459 26.5917V27.6136ZM182.226 19.2655L179.132 11.3492L176.095 19.2655H182.226Z" fill="url(#paint6_linear_640_20598)"></path>
    <path d="M210.754 17.5239C210.754 19.2607 210.427 20.7672 209.775 22.0434C209.122 23.3196 208.273 24.3656 207.227 25.1812C206.172 25.9968 204.987 26.6061 203.672 27.0091C202.358 27.4121 201 27.6136 199.599 27.6136H191.136V26.5917C191.414 26.5917 191.774 26.5677 192.215 26.5198C192.666 26.4622 192.964 26.3998 193.107 26.3326C193.395 26.2079 193.602 26.0256 193.726 25.7857C193.861 25.5362 193.928 25.2387 193.928 24.8933V10.1546C193.928 9.82834 193.87 9.53567 193.755 9.27659C193.65 9.01751 193.434 8.81121 193.107 8.65768C192.81 8.51375 192.489 8.4082 192.143 8.34103C191.798 8.27386 191.5 8.23068 191.251 8.21149V7.18957H200.175C201.403 7.18957 202.612 7.38148 203.802 7.7653C204.991 8.13952 206.028 8.64809 206.911 9.29099C208.11 10.145 209.05 11.2629 209.732 12.6446C210.413 14.0264 210.754 15.6528 210.754 17.5239ZM207.227 17.5096C207.227 16.1374 207.045 14.8996 206.68 13.7961C206.316 12.683 205.783 11.7139 205.083 10.8886C204.421 10.1018 203.605 9.4829 202.636 9.03191C201.676 8.58092 200.606 8.35542 199.426 8.35542C199.033 8.35542 198.586 8.36502 198.088 8.38421C197.598 8.39381 197.234 8.4034 196.994 8.413V24.1161C196.994 24.9893 197.248 25.5938 197.756 25.9296C198.265 26.2655 199.047 26.4334 200.103 26.4334C201.321 26.4334 202.386 26.2175 203.298 25.7857C204.209 25.3539 204.948 24.7542 205.514 23.9865C206.109 23.1805 206.541 22.2497 206.81 21.1942C207.088 20.1291 207.227 18.9009 207.227 17.5096Z" fill="url(#paint7_linear_640_20598)"></path>
    <path d="M85.9347 33.5927H87.6385V39.5838C87.6385 40.2736 87.4898 40.8539 87.1924 41.3248C86.8951 41.7915 86.4903 42.1447 85.9781 42.3842C85.4659 42.6196 84.8835 42.7374 84.2309 42.7374C83.5701 42.7374 82.9815 42.6196 82.4652 42.3842C81.9489 42.1447 81.5441 41.7915 81.2509 41.3248C80.9576 40.8539 80.811 40.2736 80.811 39.5838V33.5927H82.5148V39.5838C82.5148 40.0051 82.585 40.35 82.7254 40.6185C82.8658 40.8828 83.0641 41.079 83.3202 41.2071C83.5763 41.3351 83.8799 41.3991 84.2309 41.3991C84.5862 41.3991 84.8897 41.3351 85.1417 41.2071C85.3978 41.079 85.594 40.8828 85.7303 40.6185C85.8666 40.35 85.9347 40.0051 85.9347 39.5838V33.5927Z" fill="url(#paint8_linear_640_20598)"></path>
    <path d="M100.311 33.5927V42.6135H98.601L94.7659 36.3559V42.6135H93.0621V33.5927H94.7659L98.6134 39.8564V33.5927H100.311Z" fill="url(#paint9_linear_640_20598)"></path>
    <path d="M107.668 33.5927V42.6135H105.964V33.5927H107.668Z" fill="url(#paint10_linear_640_20598)"></path>
    <path d="M116.486 40.8477L118.735 33.5927H120.625L117.441 42.6135H116.183L116.486 40.8477ZM114.411 33.5927L116.648 40.8477L116.97 42.6135H115.7L112.527 33.5927H114.411Z" fill="url(#paint11_linear_640_20598)"></path>
    <path d="M131.34 41.2752V42.6135H126.544V41.2752H131.34ZM127.065 33.5927V42.6135H125.361V33.5927H127.065ZM130.714 37.3162V38.6235H126.544V37.3162H130.714ZM131.321 33.5927V34.9371H126.544V33.5927H131.321Z" fill="url(#paint12_linear_640_20598)"></path>
    <path d="M136.33 33.5927H139.607C140.293 33.5927 140.881 33.6959 141.373 33.9024C141.864 34.109 142.242 34.4146 142.507 34.8194C142.771 35.2242 142.903 35.7219 142.903 36.3125C142.903 36.7793 142.821 37.184 142.655 37.5269C142.49 37.8697 142.257 38.1568 141.955 38.3881C141.658 38.6194 141.307 38.8011 140.902 38.9333L140.369 39.2059H137.476L137.464 37.8614H139.626C139.977 37.8614 140.268 37.7995 140.499 37.6756C140.731 37.5516 140.904 37.3802 141.02 37.1613C141.14 36.9424 141.199 36.6925 141.199 36.4117C141.199 36.1101 141.142 35.8499 141.026 35.631C140.91 35.408 140.735 35.2366 140.499 35.1168C140.264 34.997 139.967 34.9371 139.607 34.9371H138.034V42.6135H136.33V33.5927ZM141.423 42.6135L139.335 38.5739L141.138 38.5677L143.25 42.5267V42.6135H141.423Z" fill="url(#paint13_linear_640_20598)"></path>
    <path d="M152.924 40.2715C152.924 40.098 152.897 39.9431 152.843 39.8068C152.794 39.6664 152.701 39.5404 152.565 39.4289C152.432 39.3133 152.245 39.2017 152.001 39.0944C151.761 38.9828 151.452 38.8672 151.072 38.7474C150.65 38.6152 150.258 38.4665 149.894 38.3013C149.531 38.1361 149.211 37.944 148.934 37.7251C148.661 37.5062 148.449 37.2543 148.296 36.9693C148.143 36.6801 148.067 36.3456 148.067 35.9656C148.067 35.5938 148.145 35.2551 148.302 34.9495C148.463 34.6438 148.69 34.3816 148.984 34.1627C149.277 33.9396 149.622 33.7682 150.018 33.6484C150.419 33.5286 150.861 33.4688 151.344 33.4688C152.013 33.4688 152.592 33.5906 153.079 33.8343C153.57 34.078 153.95 34.4084 154.219 34.8256C154.487 35.2428 154.622 35.7116 154.622 36.232H152.924C152.924 35.9511 152.864 35.7033 152.744 35.4885C152.629 35.2737 152.451 35.1044 152.212 34.9805C151.976 34.8566 151.679 34.7946 151.319 34.7946C150.972 34.7946 150.683 34.8462 150.452 34.9495C150.225 35.0528 150.053 35.1932 149.938 35.3708C149.826 35.5484 149.77 35.7467 149.77 35.9656C149.77 36.1308 149.81 36.2795 149.888 36.4117C149.967 36.5397 150.084 36.6615 150.241 36.7772C150.398 36.8887 150.592 36.994 150.824 37.0932C151.059 37.1882 151.332 37.2832 151.642 37.3782C152.137 37.5269 152.571 37.6921 152.943 37.8738C153.318 38.0556 153.63 38.2621 153.878 38.4934C154.13 38.7247 154.318 38.9849 154.442 39.274C154.57 39.5632 154.634 39.8915 154.634 40.2591C154.634 40.6474 154.558 40.9943 154.405 41.3C154.252 41.6056 154.033 41.8659 153.748 42.0806C153.463 42.2954 153.12 42.4586 152.72 42.5701C152.323 42.6816 151.879 42.7374 151.388 42.7374C150.95 42.7374 150.516 42.6795 150.086 42.5639C149.661 42.4441 149.275 42.2665 148.928 42.0311C148.581 41.7915 148.304 41.49 148.098 41.1265C147.891 40.7589 147.788 40.3293 147.788 39.8378H149.498C149.498 40.1228 149.543 40.3665 149.634 40.5689C149.729 40.7672 149.861 40.9303 150.031 41.0584C150.204 41.1823 150.407 41.2731 150.638 41.331C150.869 41.3888 151.119 41.4177 151.388 41.4177C151.734 41.4177 152.019 41.3702 152.243 41.2752C152.47 41.1761 152.639 41.0398 152.751 40.8663C152.866 40.6928 152.924 40.4946 152.924 40.2715Z" fill="url(#paint14_linear_640_20598)"></path>
    <path d="M161.569 33.5927V42.6135H159.866V33.5927H161.569Z" fill="url(#paint15_linear_640_20598)"></path>
    <path d="M171.088 33.5927V42.6135H169.391V33.5927H171.088ZM173.889 33.5927V34.9371H166.621V33.5927H173.889Z" fill="url(#paint16_linear_640_20598)"></path>
    <path d="M179.882 33.5927L181.865 37.7995L183.86 33.5927H185.731L182.732 39.3112V42.6135H181.004V39.3112L177.999 33.5927H179.882Z" fill="url(#paint17_linear_640_20598)"></path>
    <rect x="54.6" y="36.9438" width="19.2431" height="1.12368" rx="0.561842" fill="url(#paint18_linear_640_20598)"></rect>
    <rect x="191.968" y="36.9438" width="19.2431" height="1.12368" rx="0.561842" fill="url(#paint19_linear_640_20598)"></rect>
  </mask>
  <g mask="url(#mask0_640_20598)">
    <rect x="49.2643" y="5.61328" width="165" height="43" fill="black"></rect>
  </g>
  <path d="M68.8231 17.6303C69.2549 18.1101 69.5715 18.6379 69.773 19.2136C69.9841 19.7797 70.0897 20.4418 70.0897 21.1999C70.0897 23.0038 69.4228 24.4911 68.089 25.6618C66.7552 26.8324 65.1 27.4178 63.1233 27.4178C62.2117 27.4178 61.3002 27.2786 60.3886 27.0004C59.477 26.7125 58.6902 26.3671 58.0281 25.964L57.4092 27.0148H56.2577L56.0562 20.0196H57.2221C57.462 20.8832 57.7402 21.6652 58.0569 22.3657C58.3831 23.0566 58.8101 23.7043 59.3379 24.3088C59.8369 24.875 60.4174 25.3259 61.0795 25.6618C61.7512 25.9976 62.5284 26.1656 63.4112 26.1656C64.0733 26.1656 64.649 26.0792 65.1384 25.9065C65.6373 25.7338 66.0404 25.4891 66.3474 25.1724C66.6545 24.8558 66.88 24.4863 67.0239 24.0641C67.1774 23.6323 67.2542 23.1382 67.2542 22.5816C67.2542 21.766 67.0239 21.008 66.5633 20.3075C66.1027 19.5974 65.4166 19.0601 64.5051 18.6954C63.8814 18.446 63.1665 18.1725 62.3605 17.875C61.5544 17.568 60.8588 17.2801 60.2734 17.0114C59.122 16.4933 58.2248 15.8168 57.5819 14.982C56.9486 14.1376 56.6319 13.0389 56.6319 11.6859C56.6319 10.9087 56.7903 10.1842 57.1069 9.51252C57.4236 8.84083 57.8746 8.24111 58.4599 7.71336C59.0164 7.21439 59.6737 6.82577 60.4318 6.5475C61.1898 6.25963 61.9815 6.1157 62.8067 6.1157C63.747 6.1157 64.5866 6.25963 65.3255 6.5475C66.0739 6.83537 66.7552 7.17121 67.3693 7.55503L67.9595 6.57629H69.1109L69.2261 13.3555H68.0602C67.8491 12.5783 67.6092 11.8346 67.3406 11.1246C67.0815 10.4145 66.7408 9.7716 66.3186 9.19586C65.906 8.63932 65.4023 8.19793 64.8073 7.87168C64.2124 7.53584 63.4831 7.36792 62.6196 7.36792C61.708 7.36792 60.9307 7.66058 60.2878 8.24591C59.6449 8.83123 59.3235 9.5461 59.3235 10.3905C59.3235 11.2733 59.5298 12.0074 59.9424 12.5927C60.355 13.1684 60.9547 13.6434 61.7416 14.0176C62.442 14.3535 63.1281 14.6461 63.7998 14.8956C64.4811 15.1355 65.1384 15.3946 65.7717 15.6728C66.3474 15.9223 66.8992 16.2054 67.4269 16.522C67.9643 16.8387 68.4296 17.2081 68.8231 17.6303Z" fill="url(#paint20_linear_640_20598)"></path>
  <path d="M81.5899 27.0004H72.3926V25.9784C72.6517 25.9592 73.0259 25.9305 73.5153 25.8921C74.0046 25.8537 74.3501 25.7961 74.5516 25.7194C74.8682 25.5946 75.0985 25.4267 75.2425 25.2156C75.3864 24.9949 75.4584 24.6926 75.4584 24.3088V9.51252C75.4584 9.17667 75.4056 8.8984 75.3 8.67771C75.1945 8.44741 74.945 8.2555 74.5516 8.10197C74.2637 7.98683 73.8991 7.88128 73.4577 7.78532C73.0259 7.67977 72.6709 7.6174 72.3926 7.59821V6.57629H81.5899V7.59821C81.2924 7.6078 80.9374 7.64619 80.5248 7.71336C80.1122 7.77093 79.7524 7.84769 79.4453 7.94365C79.0807 8.05879 78.836 8.24591 78.7112 8.50499C78.5865 8.76407 78.5241 9.05193 78.5241 9.36858V24.1505C78.5241 24.4671 78.5913 24.7502 78.7256 24.9997C78.8696 25.2396 79.1095 25.4315 79.4453 25.5754C79.6468 25.6522 79.9731 25.7385 80.424 25.8345C80.8846 25.9209 81.2733 25.9688 81.5899 25.9784V27.0004Z" fill="url(#paint21_linear_640_20598)"></path>
  <path d="M100.546 20.9264L100.114 27.0004H84.1519V25.9784C84.3822 25.9592 84.7132 25.9257 85.145 25.8777C85.5864 25.8297 85.8935 25.7673 86.0662 25.6906C86.3541 25.5658 86.5604 25.3835 86.6851 25.1436C86.8195 24.9037 86.8866 24.5967 86.8866 24.2225V9.59888C86.8866 9.27263 86.8291 8.98476 86.7139 8.73528C86.6084 8.4858 86.3925 8.28429 86.0662 8.13076C85.8455 8.01561 85.5337 7.90527 85.1307 7.79972C84.7372 7.68457 84.411 7.6174 84.1519 7.59821V6.57629H92.7735V7.59821C92.5048 7.6078 92.1546 7.65578 91.7228 7.74214C91.3006 7.8285 90.9935 7.90527 90.8016 7.97243C90.4754 8.08758 90.2499 8.28429 90.1251 8.56256C90.01 8.84083 89.9524 9.13829 89.9524 9.45494V23.1717C89.9524 23.8051 89.9812 24.2992 90.0388 24.6543C90.1059 24.9997 90.2547 25.2684 90.485 25.4603C90.7057 25.633 91.0319 25.7481 91.4637 25.8057C91.9051 25.8537 92.5192 25.8777 93.306 25.8777C93.6611 25.8777 94.0305 25.8681 94.4143 25.8489C94.7981 25.8297 95.1628 25.7913 95.5082 25.7338C95.8441 25.6762 96.1511 25.5994 96.4294 25.5035C96.7173 25.3979 96.9284 25.2684 97.0627 25.1148C97.4561 24.6734 97.9119 24.0066 98.4301 23.1142C98.9578 22.2122 99.3224 21.4829 99.5239 20.9264H100.546Z" fill="url(#paint22_linear_640_20598)"></path>
  <path d="M121.762 27.0004H116.033C114.93 25.2924 113.701 23.5987 112.348 21.9195C111.005 20.2307 109.594 18.5947 108.117 17.0114H107.743V24.1217C107.743 24.4384 107.8 24.7214 107.915 24.9709C108.04 25.2204 108.261 25.4219 108.577 25.5754C108.731 25.6426 109.014 25.7242 109.427 25.8201C109.849 25.9161 110.199 25.9688 110.477 25.9784V27.0004H102V25.9784C102.22 25.9592 102.542 25.9305 102.964 25.8921C103.386 25.8537 103.684 25.7961 103.856 25.7194C104.144 25.5946 104.35 25.4123 104.475 25.1724C104.61 24.9229 104.677 24.6255 104.677 24.28V9.5413C104.677 9.21506 104.619 8.93199 104.504 8.6921C104.398 8.45221 104.183 8.2555 103.856 8.10197C103.597 7.97723 103.29 7.86688 102.935 7.77093C102.58 7.67497 102.268 7.6174 102 7.59821V6.57629H110.477V7.59821C110.209 7.6078 109.873 7.65098 109.47 7.72775C109.067 7.80451 108.769 7.87648 108.577 7.94365C108.251 8.05879 108.03 8.2507 107.915 8.51938C107.8 8.78805 107.743 9.08072 107.743 9.39737V16.4501H108.03C108.894 15.7208 109.743 14.9628 110.578 14.1759C111.413 13.3795 112.171 12.5879 112.852 11.801C113.61 10.9279 114.162 10.2322 114.507 9.71402C114.862 9.18627 115.04 8.72089 115.04 8.31787C115.04 8.17394 114.949 8.05879 114.766 7.97243C114.594 7.87648 114.392 7.79972 114.162 7.74214C113.893 7.68457 113.653 7.65098 113.442 7.64139C113.231 7.6222 113.058 7.6078 112.924 7.59821V6.57629H120.581V7.59821C120.553 7.59821 120.49 7.60301 120.394 7.6126C120.298 7.6222 120.188 7.63179 120.063 7.64139C119.929 7.65098 119.794 7.67018 119.66 7.69896C119.526 7.72775 119.353 7.76133 119.142 7.79972C118.806 7.87648 118.456 8.00122 118.091 8.17394C117.736 8.33706 117.444 8.54337 117.213 8.79285C116.225 9.91553 115.193 11.0766 114.119 12.276C113.044 13.4755 111.979 14.5694 110.923 15.5577C112.382 17.2081 113.586 18.6283 114.536 19.8181C115.496 21.008 116.513 22.2794 117.588 23.6323C118 24.1505 118.413 24.5679 118.825 24.8845C119.238 25.1916 119.593 25.4219 119.89 25.5754C120.14 25.7002 120.452 25.7961 120.826 25.8633C121.2 25.9305 121.512 25.9688 121.762 25.9784V27.0004Z" fill="url(#paint23_linear_640_20598)"></path>
  <path d="M149.411 27.0004H143.913C142.694 25.0909 141.591 23.4404 140.602 22.0491C139.624 20.6577 138.559 19.2232 137.407 17.7455H135.32V24.2225C135.32 24.5583 135.373 24.8558 135.478 25.1148C135.584 25.3643 135.809 25.5562 136.155 25.6906C136.328 25.7577 136.63 25.8201 137.062 25.8777C137.493 25.9353 137.858 25.9688 138.156 25.9784V27.0004H129.52V25.9784C129.75 25.9592 130.081 25.9257 130.513 25.8777C130.954 25.8297 131.261 25.7673 131.434 25.6906C131.722 25.5658 131.928 25.3835 132.053 25.1436C132.187 24.9037 132.254 24.5967 132.254 24.2225V9.45494C132.254 9.1191 132.206 8.82164 132.11 8.56256C132.014 8.30348 131.789 8.10677 131.434 7.97243C131.194 7.88608 130.882 7.80931 130.498 7.74214C130.114 7.66538 129.788 7.6174 129.52 7.59821V6.57629H138.947C139.811 6.57629 140.622 6.66744 141.38 6.84976C142.138 7.02248 142.824 7.30555 143.438 7.69896C144.033 8.08278 144.508 8.58655 144.863 9.21026C145.218 9.82437 145.395 10.568 145.395 11.4412C145.395 12.228 145.275 12.9237 145.036 13.5282C144.796 14.1328 144.441 14.6557 143.97 15.0971C143.539 15.5097 143.02 15.8696 142.416 16.1766C141.811 16.4741 141.145 16.7284 140.415 16.9395C141.423 18.2732 142.258 19.3959 142.92 20.3075C143.591 21.2191 144.412 22.3273 145.381 23.6323C145.803 24.2081 146.182 24.6351 146.518 24.9133C146.863 25.182 147.204 25.4027 147.54 25.5754C147.789 25.7002 148.101 25.7961 148.476 25.8633C148.85 25.9305 149.162 25.9688 149.411 25.9784V27.0004ZM141.84 11.7723C141.84 10.5344 141.485 9.5557 140.775 8.83603C140.065 8.10677 139.062 7.74214 137.767 7.74214H135.32V16.5077H137.206C138.53 16.5077 139.633 16.0855 140.516 15.241C141.399 14.387 141.84 13.2308 141.84 11.7723Z" fill="url(#paint24_linear_640_20598)"></path>
  <path d="M166.712 8.99436C167.614 9.93472 168.319 11.0718 168.828 12.4056C169.336 13.7297 169.59 15.1979 169.59 16.8099C169.59 18.4316 169.331 19.9045 168.813 21.2287C168.295 22.5528 167.575 23.6803 166.654 24.6111C165.762 25.5322 164.726 26.2423 163.545 26.7413C162.365 27.2402 161.108 27.4897 159.774 27.4897C158.354 27.4897 157.04 27.2259 155.83 26.6981C154.631 26.1608 153.6 25.4171 152.736 24.4671C151.872 23.5364 151.191 22.4089 150.692 21.0847C150.203 19.7509 149.958 18.326 149.958 16.8099C149.958 15.1499 150.217 13.6722 150.735 12.3768C151.253 11.0718 151.968 9.94432 152.88 8.99436C153.782 8.054 154.828 7.33433 156.018 6.83536C157.217 6.3364 158.469 6.08691 159.774 6.08691C161.127 6.08691 162.403 6.3412 163.603 6.84976C164.802 7.35832 165.839 8.07319 166.712 8.99436ZM164.567 23.474C165.105 22.6008 165.493 21.6125 165.733 20.509C165.983 19.4055 166.107 18.1725 166.107 16.8099C166.107 15.409 165.968 14.1232 165.69 12.9525C165.421 11.7819 165.023 10.7839 164.495 9.95871C163.967 9.14309 163.305 8.50978 162.509 8.05879C161.713 7.59821 160.801 7.36792 159.774 7.36792C158.623 7.36792 157.644 7.63179 156.838 8.15955C156.032 8.6873 155.375 9.39257 154.866 10.2754C154.386 11.1198 154.027 12.1081 153.787 13.2404C153.556 14.3726 153.441 15.5625 153.441 16.8099C153.441 18.1917 153.566 19.4391 153.815 20.5522C154.065 21.6652 154.458 22.6536 154.996 23.5172C155.514 24.3616 156.166 25.0237 156.953 25.5035C157.74 25.9736 158.68 26.2087 159.774 26.2087C160.801 26.2087 161.727 25.9688 162.552 25.4891C163.377 25.0093 164.049 24.3376 164.567 23.474Z" fill="url(#paint25_linear_640_20598)"></path>
  <path d="M191.195 27.0004H182.688V25.9784C183.437 25.9305 184.056 25.8345 184.545 25.6906C185.044 25.5466 185.294 25.3691 185.294 25.158C185.294 25.0717 185.284 24.9661 185.265 24.8414C185.246 24.7166 185.217 24.6063 185.178 24.5103L183.48 19.9333H176.327C176.058 20.6049 175.837 21.1903 175.664 21.6892C175.501 22.1882 175.353 22.6488 175.218 23.071C175.094 23.4836 175.007 23.8194 174.959 24.0785C174.911 24.3376 174.887 24.5487 174.887 24.7118C174.887 25.0956 175.189 25.3931 175.794 25.6042C176.398 25.8153 177.08 25.9401 177.838 25.9784V27.0004H170.152V25.9784C170.401 25.9592 170.713 25.9065 171.087 25.8201C171.462 25.7242 171.769 25.5994 172.009 25.4459C172.392 25.1868 172.69 24.9181 172.901 24.6399C173.112 24.352 173.318 23.9586 173.52 23.4596C174.547 20.8976 175.679 18.0189 176.917 14.8236C178.154 11.6283 179.258 8.78326 180.227 6.28842H181.379L188.187 23.9058C188.331 24.28 188.494 24.5823 188.676 24.8126C188.858 25.0429 189.113 25.2684 189.439 25.4891C189.66 25.6234 189.947 25.7385 190.302 25.8345C190.657 25.9209 190.955 25.9688 191.195 25.9784V27.0004ZM182.962 18.6523L179.867 10.7359L176.83 18.6523H182.962Z" fill="url(#paint26_linear_640_20598)"></path>
  <path d="M211.489 16.9107C211.489 18.6475 211.163 20.154 210.511 21.4302C209.858 22.7064 209.009 23.7523 207.963 24.5679C206.907 25.3835 205.722 25.9928 204.408 26.3958C203.093 26.7989 201.735 27.0004 200.335 27.0004H191.871V25.9784C192.15 25.9784 192.509 25.9544 192.951 25.9065C193.402 25.8489 193.699 25.7865 193.843 25.7194C194.131 25.5946 194.337 25.4123 194.462 25.1724C194.596 24.9229 194.664 24.6255 194.664 24.28V9.5413C194.664 9.21506 194.606 8.92239 194.491 8.66331C194.385 8.40423 194.169 8.19793 193.843 8.0444C193.546 7.90047 193.224 7.79492 192.879 7.72775C192.533 7.66058 192.236 7.6174 191.986 7.59821V6.57629H200.91C202.138 6.57629 203.348 6.7682 204.537 7.15202C205.727 7.52624 206.764 8.03481 207.646 8.67771C208.846 9.53171 209.786 10.6496 210.467 12.0313C211.149 13.4131 211.489 15.0395 211.489 16.9107ZM207.963 16.8963C207.963 15.5241 207.781 14.2863 207.416 13.1828C207.051 12.0697 206.519 11.1006 205.818 10.2754C205.156 9.48853 204.341 8.86962 203.372 8.41863C202.412 7.96764 201.342 7.74214 200.162 7.74214C199.768 7.74214 199.322 7.75174 198.823 7.77093C198.334 7.78052 197.969 7.79012 197.729 7.79972V23.5028C197.729 24.376 197.984 24.9805 198.492 25.3163C199.001 25.6522 199.783 25.8201 200.838 25.8201C202.057 25.8201 203.122 25.6042 204.034 25.1724C204.945 24.7406 205.684 24.1409 206.25 23.3733C206.845 22.5672 207.277 21.6365 207.546 20.581C207.824 19.5159 207.963 18.2876 207.963 16.8963Z" fill="url(#paint27_linear_640_20598)"></path>
  <path d="M86.6705 32.9794H88.3742V38.9705C88.3742 39.6603 88.2255 40.2406 87.9282 40.7115C87.6308 41.1782 87.226 41.5314 86.7138 41.7709C86.2017 42.0064 85.6193 42.1241 84.9667 42.1241C84.3058 42.1241 83.7172 42.0064 83.2009 41.7709C82.6846 41.5314 82.2798 41.1782 81.9866 40.7115C81.6933 40.2406 81.5467 39.6603 81.5467 38.9705V32.9794H83.2505V38.9705C83.2505 39.3918 83.3207 39.7367 83.4611 40.0052C83.6016 40.2695 83.7998 40.4657 84.0559 40.5938C84.312 40.7218 84.6156 40.7858 84.9667 40.7858C85.3219 40.7858 85.6255 40.7218 85.8774 40.5938C86.1335 40.4657 86.3297 40.2695 86.466 40.0052C86.6023 39.7367 86.6705 39.3918 86.6705 38.9705V32.9794Z" fill="url(#paint28_linear_640_20598)"></path>
  <path d="M101.047 32.9794V42.0002H99.3367L95.5017 35.7426V42.0002H93.7979V32.9794H95.5017L99.3491 39.2431V32.9794H101.047Z" fill="url(#paint29_linear_640_20598)"></path>
  <path d="M108.403 32.9794V42.0002H106.7V32.9794H108.403Z" fill="url(#paint30_linear_640_20598)"></path>
  <path d="M117.222 40.2344L119.471 32.9794H121.361L118.176 42.0002H116.919L117.222 40.2344ZM115.147 32.9794L117.383 40.2344L117.705 42.0002H116.435L113.263 32.9794H115.147Z" fill="url(#paint31_linear_640_20598)"></path>
  <path d="M132.076 40.6619V42.0002H127.28V40.6619H132.076ZM127.801 32.9794V42.0002H126.097V32.9794H127.801ZM131.45 36.7029V38.0102H127.28V36.7029H131.45ZM132.057 32.9794V34.3238H127.28V32.9794H132.057Z" fill="url(#paint32_linear_640_20598)"></path>
  <path d="M137.065 32.9794H140.343C141.029 32.9794 141.617 33.0826 142.109 33.2892C142.6 33.4957 142.978 33.8013 143.242 34.2061C143.507 34.6109 143.639 35.1086 143.639 35.6992C143.639 36.166 143.556 36.5708 143.391 36.9136C143.226 37.2564 142.993 37.5435 142.691 37.7748C142.394 38.0061 142.043 38.1878 141.638 38.32L141.105 38.5926H138.212L138.199 37.2481H140.361C140.713 37.2481 141.004 37.1862 141.235 37.0623C141.466 36.9384 141.64 36.767 141.756 36.548C141.875 36.3291 141.935 36.0792 141.935 35.7984C141.935 35.4969 141.877 35.2366 141.762 35.0177C141.646 34.7947 141.471 34.6233 141.235 34.5035C141 34.3837 140.702 34.3238 140.343 34.3238H138.769V42.0002H137.065V32.9794ZM142.158 42.0002L140.07 37.9606L141.873 37.9544L143.986 41.9134V42.0002H142.158Z" fill="url(#paint33_linear_640_20598)"></path>
  <path d="M153.66 39.6582C153.66 39.4848 153.633 39.3299 153.579 39.1936C153.53 39.0531 153.437 38.9272 153.3 38.8156C153.168 38.7 152.98 38.5885 152.737 38.4811C152.497 38.3696 152.187 38.2539 151.807 38.1341C151.386 38.0019 150.994 37.8532 150.63 37.688C150.267 37.5228 149.947 37.3308 149.67 37.1118C149.397 36.8929 149.184 36.641 149.032 36.356C148.879 36.0669 148.802 35.7323 148.802 35.3523C148.802 34.9806 148.881 34.6419 149.038 34.3362C149.199 34.0306 149.426 33.7683 149.719 33.5494C150.013 33.3263 150.357 33.1549 150.754 33.0351C151.155 32.9154 151.597 32.8555 152.08 32.8555C152.749 32.8555 153.327 32.9773 153.815 33.221C154.306 33.4647 154.686 33.7951 154.955 34.2123C155.223 34.6295 155.357 35.0983 155.357 35.6187H153.66C153.66 35.3378 153.6 35.09 153.48 34.8752C153.364 34.6605 153.187 34.4911 152.947 34.3672C152.712 34.2433 152.414 34.1813 152.055 34.1813C151.708 34.1813 151.419 34.233 151.188 34.3362C150.961 34.4395 150.789 34.5799 150.673 34.7575C150.562 34.9351 150.506 35.1334 150.506 35.3523C150.506 35.5175 150.545 35.6662 150.624 35.7984C150.702 35.9264 150.82 36.0483 150.977 36.1639C151.134 36.2754 151.328 36.3808 151.559 36.4799C151.795 36.5749 152.067 36.6699 152.377 36.7649C152.873 36.9136 153.307 37.0788 153.678 37.2605C154.054 37.4423 154.366 37.6488 154.614 37.8801C154.866 38.1114 155.054 38.3716 155.178 38.6607C155.306 38.9499 155.37 39.2782 155.37 39.6458C155.37 40.0341 155.293 40.3811 155.14 40.6867C154.988 40.9924 154.769 41.2526 154.484 41.4674C154.199 41.6821 153.856 41.8453 153.455 41.9568C153.059 42.0683 152.615 42.1241 152.123 42.1241C151.685 42.1241 151.252 42.0663 150.822 41.9506C150.397 41.8308 150.011 41.6532 149.664 41.4178C149.317 41.1782 149.04 40.8767 148.833 40.5132C148.627 40.1456 148.524 39.7161 148.524 39.2245H150.234C150.234 39.5095 150.279 39.7532 150.37 39.9556C150.465 40.1539 150.597 40.317 150.766 40.4451C150.94 40.569 151.142 40.6599 151.374 40.7177C151.605 40.7755 151.855 40.8044 152.123 40.8044C152.47 40.8044 152.755 40.7569 152.978 40.6619C153.205 40.5628 153.375 40.4265 153.486 40.253C153.602 40.0795 153.66 39.8813 153.66 39.6582Z" fill="url(#paint34_linear_640_20598)"></path>
  <path d="M162.305 32.9794V42.0002H160.601V32.9794H162.305Z" fill="url(#paint35_linear_640_20598)"></path>
  <path d="M171.824 32.9794V42.0002H170.126V32.9794H171.824ZM174.624 32.9794V34.3238H167.357V32.9794H174.624Z" fill="url(#paint36_linear_640_20598)"></path>
  <path d="M180.618 32.9794L182.601 37.1862L184.596 32.9794H186.467L183.468 38.6979V42.0002H181.739V38.6979L178.735 32.9794H180.618Z" fill="url(#paint37_linear_640_20598)"></path>
  <rect x="55.3357" y="36.3306" width="19.2431" height="1.12368" rx="0.561842" fill="url(#paint38_linear_640_20598)"></rect>
  <rect x="192.704" y="36.3306" width="19.2431" height="1.12368" rx="0.561842" fill="url(#paint39_linear_640_20598)"></rect>
  <g clip-path="url(#clip0_640_20598)">
    <path d="M1.93046 26.6157C3.18886 20.0572 2.34323 11.5175 0 6.0411C8.46162 -1.27683 36.8734 -1.41691 46 6.0411C43.7002 11.1642 42.9364 20.3663 44.0212 26.5494C45.7871 36.6144 29.6921 48.0425 22.7059 49.5C15.8932 47.6892 -0.0281804 36.8237 1.93046 26.6157Z" stroke="black" stroke-opacity="0.9" stroke-width="0.895646"></path>
  </g>
  <path fill-rule="evenodd" clip-rule="evenodd" d="M2.38759 26.4872C3.66982 19.8301 2.38759 11.873 0 6.31422C8.95347 -2.38259 39.2626 -1.82223 48.0392 6.31422C45.6958 11.5144 44.5905 20.1439 45.6958 26.42C47.4952 36.6363 30.8618 48.5206 23.7433 50C16.8016 48.162 0.391863 36.8487 2.38759 26.4872ZM36.7646 2.80584C40.7085 3.67704 44.1335 5.00098 46.4019 6.81401L46.6753 7.03253L46.5293 7.35063C45.4545 9.69249 44.7265 13.0001 44.3998 16.4613C44.0735 19.9184 44.1515 23.4881 44.6634 26.3419C45.1115 28.8399 44.4207 31.3891 43.0747 33.8012C41.7283 36.2139 39.7093 38.5215 37.4412 40.5602C32.918 44.6258 27.3082 47.7044 23.8487 48.4103L23.747 48.431L23.6465 48.4049C20.2894 47.5322 14.7712 44.5127 10.3294 40.5171C8.10399 38.5153 6.12708 36.2495 4.82433 33.8598C3.521 31.469 2.87845 28.9266 3.37469 26.397C4.56673 20.3205 3.76059 12.3953 1.55055 7.34331L1.41676 7.03749L1.67161 6.82192C3.78361 5.03541 7.09427 3.71855 10.957 2.84336C14.8314 1.96555 19.3099 1.52133 23.8013 1.51306C28.2929 1.50479 32.811 1.93247 36.7646 2.80584ZM2.50495 7.29757C4.69169 12.5366 5.45358 20.4524 4.25358 26.5694C3.80964 28.8325 4.37258 31.1599 5.61072 33.4311C6.84945 35.7034 8.74999 37.8917 10.9284 39.8513C15.2484 43.7373 20.5758 46.649 23.7712 47.5114C27.0303 46.8084 32.433 43.8574 36.8424 39.8941C39.0637 37.8976 41.009 35.6649 42.2925 33.3647C43.5765 31.0639 44.1814 28.7276 43.7818 26.5001C43.2523 23.5481 43.1762 19.8944 43.5081 16.3771C43.8253 13.0159 44.5187 9.7419 45.5704 7.30295C43.4543 5.71787 40.2966 4.50331 36.5714 3.6804C32.6927 2.82356 28.2412 2.40053 23.803 2.4087C19.3647 2.41687 14.9534 2.85625 11.155 3.71687C7.50677 4.54343 4.46818 5.7488 2.50495 7.29757ZM24.4449 40.8673L23.8047 39.2389L23.1646 40.8673L21.4181 40.9729L22.7689 42.0849L22.3297 43.7786L23.8047 42.8375L25.2798 43.7786L24.8405 42.0849L26.1914 40.9729L24.4449 40.8673ZM29.3255 38.2351L29.8377 39.5378L31.2349 39.6223L30.1542 40.5119L30.5056 41.8668L29.3255 41.1139L28.1455 41.8668L28.4969 40.5119L27.4162 39.6223L28.8134 39.5378L29.3255 38.2351ZM18.967 39.7377L18.4549 38.435L17.9428 39.7377L16.5456 39.8222L17.6263 40.7118L17.2749 42.0667L18.4549 41.3138L19.6349 42.0667L19.2836 40.7118L20.3642 39.8222L18.967 39.7377ZM13.3748 7.94602H16.4568H17.3345V8.82362V28.8238C17.3345 32.4427 20.2681 35.3763 23.887 35.3763C25.6607 35.3763 27.2699 34.6716 28.4496 33.5268C27.8476 33.2226 27.2594 32.836 26.6874 32.3682C26.332 32.0775 25.5767 31.3118 25.2833 30.9446C24.9162 30.4851 24.7923 30.3011 24.0467 29.1067L23.3668 28.0178L23.1979 28.0108L23.029 28.0038V29.4526V30.9015L23.7175 31.0298L24.406 31.1582V31.653V32.1478H22.0556H19.7052V31.6603V31.1727L19.7705 31.156C19.8064 31.1468 20.0334 31.0901 20.275 31.0301L20.7142 30.921L20.7202 27.1469L20.7262 23.3729L20.2217 23.2547L19.7171 23.1366L19.7107 22.6433L19.7043 22.15H21.9814C23.4156 22.15 24.3496 22.1594 24.5044 22.1752C25.6971 22.2977 26.595 22.7726 27.1069 23.5517C27.2743 23.8064 27.3765 24.0384 27.4638 24.362C27.5214 24.5752 27.5254 24.6246 27.5259 25.1255C27.5263 25.6305 27.5228 25.6743 27.4641 25.8901C27.3472 26.3197 27.1757 26.6267 26.8752 26.9445C26.6503 27.1822 26.3958 27.3728 26.1054 27.521C25.9804 27.5847 25.8782 27.6441 25.8781 27.6529C25.8779 27.6857 27.1263 29.5751 27.3146 29.8269C27.957 30.686 28.7763 31.4208 29.651 31.9428C30.154 31.0154 30.4396 29.9529 30.4396 28.8238V8.82362V7.94602H31.3172H34.2888V9.70122H32.1948V28.8238C32.1948 30.1981 31.8611 31.4945 31.2702 32.6363C31.5589 32.7105 31.9292 32.7828 32.2051 32.8171C32.5526 32.8604 33.3533 32.8541 33.7127 32.8053C34.5116 32.6969 35.0758 32.5212 36.3958 31.9207C37.5505 31.3954 37.5816 31.6717 37.5816 31.6717C37.5816 31.6717 37.4122 32.3734 36.1539 33.1678C35.3209 33.6938 34.311 34.0842 33.3436 34.2542C32.5162 34.3997 31.448 34.3998 30.6144 34.2543C30.4888 34.2324 30.3637 34.2072 30.2389 34.1787C28.715 35.9845 26.435 37.1315 23.887 37.1315C19.2988 37.1315 15.5792 33.412 15.5792 28.8238V9.70122H13.3748V7.94602ZM19.6368 20.0966C19.3945 20.0966 19.198 20.2931 19.198 20.5354C19.198 20.7778 19.3945 20.9742 19.6368 20.9742H28.0693C28.3117 20.9742 28.5081 20.7778 28.5081 20.5354C28.5081 20.2931 28.3117 20.0966 28.0693 20.0966H19.6368ZM8.96451 26.491C9.20686 26.491 9.40332 26.2946 9.40332 26.0522V15.0329C9.40332 14.7906 9.20686 14.5941 8.96451 14.5941C8.72217 14.5941 8.52571 14.7906 8.52571 15.0329V26.0522C8.52571 26.2946 8.72217 26.491 8.96451 26.491ZM11.9128 23.0567C11.9128 23.2991 11.7163 23.4955 11.474 23.4955C11.2316 23.4955 11.0352 23.2991 11.0352 23.0567V18.0444C11.0352 17.8021 11.2316 17.6056 11.474 17.6056C11.7163 17.6056 11.9128 17.8021 11.9128 18.0444V23.0567ZM39.0782 26.491C38.8359 26.491 38.6394 26.2946 38.6394 26.0522V15.0329C38.6394 14.7906 38.8359 14.5941 39.0782 14.5941C39.3205 14.5941 39.517 14.7906 39.517 15.0329V26.0522C39.517 26.2946 39.3205 26.491 39.0782 26.491ZM36.1299 23.0567C36.1299 23.2991 36.3264 23.4955 36.5687 23.4955C36.8111 23.4955 37.0075 23.2991 37.0075 23.0567V18.0444C37.0075 17.8021 36.8111 17.6056 36.5687 17.6056C36.3264 17.6056 36.1299 17.8021 36.1299 18.0444V23.0567ZM23.476 7.51144C21.7212 7.62848 20.33 8.67622 20.0228 10.1119C19.9622 10.3953 19.9421 10.829 19.9765 11.1111C20.1033 12.1501 20.68 12.9332 21.8608 13.6696C22.2608 13.919 22.4765 14.0331 23.2668 14.4129C24.3039 14.9114 24.6431 15.1115 24.9644 15.4142C25.2344 15.6687 25.347 15.9021 25.3464 16.2058C25.3457 16.5422 25.2427 16.7825 25.0147 16.9794C24.7966 17.1678 24.542 17.271 24.1615 17.325C23.6221 17.4016 23.0815 17.3313 22.6493 17.1282C21.9717 16.8097 21.4712 16.0186 21.0823 14.6513C21.0151 14.4151 20.9856 14.3424 20.957 14.3426C20.8888 14.3432 19.7202 14.5543 19.7047 14.5689C19.6919 14.5808 19.981 18.3474 20.019 18.6632L20.0314 18.7662H20.5257H21.0201L21.2332 18.5507L21.4463 18.3352L21.6245 18.4118C22.5243 18.7986 23.3497 18.9477 24.1964 18.8763C25.2788 18.785 26.1813 18.3936 26.8768 17.7139C27.3544 17.247 27.6442 16.7346 27.79 16.0989C27.859 15.7981 27.8662 15.1161 27.8038 14.8037C27.6711 14.1399 27.3671 13.6036 26.8463 13.1148C26.3641 12.6621 26.07 12.48 24.8067 11.8515C23.6112 11.2568 23.2967 11.0699 23.0155 10.7863C22.4975 10.2643 22.5907 9.43334 23.1971 9.16762C23.4123 9.07333 23.6222 9.04386 23.9848 9.05713C24.5278 9.07697 24.8384 9.19208 25.1889 9.5033C25.5988 9.86732 25.8601 10.3457 26.0879 11.1493L26.1723 11.4472L26.8212 11.453C27.1781 11.4562 27.4789 11.4504 27.4898 11.4403C27.5087 11.4227 27.3557 7.70353 27.3337 7.64635C27.3255 7.62496 27.2027 7.62013 26.7826 7.62466L26.242 7.63047L26.1084 7.85818C26.035 7.98341 25.9662 8.08406 25.9557 8.08182C25.9451 8.07959 25.8535 8.03197 25.752 7.97597C25.2651 7.70733 24.731 7.55629 24.1082 7.51109L24.0879 7.50962C23.9549 7.49995 23.8852 7.49488 23.8153 7.49443C23.7382 7.49394 23.6611 7.49908 23.4987 7.50992L23.476 7.51144ZM24.4372 23.6069C24.3565 23.5643 24.2069 23.5074 24.1048 23.4804C23.9625 23.4427 23.8157 23.4282 23.4742 23.4181L23.029 23.405V25.0746V26.7442H23.2493C23.9092 26.7442 24.3745 26.5887 24.7015 26.2588C24.9632 25.9949 25.0878 25.7117 25.1418 25.2586C25.1908 24.8468 25.1098 24.3789 24.9385 24.0845C24.8437 23.9216 24.6078 23.6968 24.4372 23.6069Z" fill="url(#paint40_linear_640_20598)"></path>
  <path d="M3.81412 26.4834C5.02223 20.325 4.21039 12.3063 1.96082 7.164C10.0842 0.292504 37.3605 0.160973 46.1223 7.164C43.9144 11.9746 43.1811 20.6153 44.2226 26.4212C45.9179 35.8721 30.4662 46.6031 23.7592 47.9717C17.2188 46.2713 1.93376 36.0686 3.81412 26.4834Z" stroke="url(#paint41_linear_640_20598)" stroke-width="0.407112"></path>
  <path d="M11.4643 23.0464V18.161" stroke="url(#paint42_linear_640_20598)" stroke-width="0.258433" stroke-linecap="round"></path>
  <path d="M23.7742 40.2754L24.1672 41.275L25.2393 41.3398L24.41 42.0224L24.6797 43.0621L23.7742 42.4844L22.8688 43.0621L23.1384 42.0224L22.3092 41.3398L23.3812 41.275L23.7742 40.2754Z" fill="url(#paint43_linear_640_20598)"></path>
  <path d="M29.3619 39.249L29.6239 39.9154L30.3386 39.9586L29.7858 40.4137L29.9656 41.1068L29.3619 40.7217L28.7583 41.1068L28.938 40.4137L28.3852 39.9586L29.0999 39.9154L29.3619 39.249Z" fill="url(#paint44_linear_640_20598)"></path>
  <path d="M18.4514 39.4121L18.7134 40.0785L19.4281 40.1217L18.8753 40.5768L19.055 41.2699L18.4514 40.8848L17.8478 41.2699L18.0275 40.5768L17.4747 40.1217L18.1894 40.0785L18.4514 39.4121Z" fill="url(#paint45_linear_640_20598)"></path>
  <path d="M39.0827 25.814V15.2291" stroke="url(#paint46_linear_640_20598)" stroke-width="0.258433" stroke-linecap="round"></path>
  <path d="M8.95648 25.814V15.2291" stroke="url(#paint47_linear_640_20598)" stroke-width="0.258433" stroke-linecap="round"></path>
  <path d="M36.5505 23.0464V18.161" stroke="url(#paint48_linear_640_20598)" stroke-width="0.258433" stroke-linecap="round"></path>
  <path d="M23.7753 18.4863C23.3592 18.4863 22.953 18.4321 22.5564 18.3236C22.1599 18.2152 21.7414 18.0458 21.3008 17.8154L20.7428 18.3643H20.3904L20.1113 14.9286L20.5813 14.8473C20.8799 15.8909 21.2764 16.6476 21.7708 17.1174C22.2652 17.5873 22.9187 17.8222 23.7313 17.8222C24.3823 17.8222 24.8963 17.6799 25.2732 17.3953C25.6551 17.1061 25.846 16.7131 25.846 16.2161C25.846 15.8593 25.7138 15.5362 25.4495 15.2471C25.1851 14.9535 24.747 14.653 24.1351 14.3458L22.9897 13.8037C22.0596 13.3519 21.3865 12.8866 20.9704 12.4077C20.5592 11.9289 20.3536 11.3709 20.3536 10.7339C20.3536 10.1918 20.5029 9.70844 20.8015 9.28378C21.105 8.8546 21.5162 8.51803 22.0351 8.27407C22.5589 8.0256 23.1488 7.90137 23.8047 7.90137C24.7054 7.90137 25.4862 8.1792 26.147 8.73488L26.5582 8.03012H26.9327L27.0649 10.9915H26.5729C26.3428 10.1738 26.0051 9.56613 25.5596 9.16857C25.119 8.77102 24.5561 8.57224 23.8708 8.57224C23.3421 8.57224 22.926 8.69874 22.6225 8.95173C22.319 9.20472 22.1673 9.55258 22.1673 9.99531C22.1673 10.3793 22.3092 10.7227 22.5932 11.0253C22.8771 11.3235 23.3592 11.6352 24.0397 11.9605L25.1558 12.5094C25.9635 12.8979 26.546 13.3271 26.9033 13.7969C27.2607 14.2668 27.4393 14.8157 27.4393 15.4436C27.4393 16.0219 27.2778 16.5414 26.9547 17.0022C26.6316 17.4585 26.1935 17.8199 25.6404 18.0865C25.0872 18.353 24.4655 18.4863 23.7753 18.4863Z" fill="url(#paint49_linear_640_20598)"></path>
  <path fill-rule="evenodd" clip-rule="evenodd" d="M13.9928 8.30207H16.4506H16.9625V8.814V28.8561C16.9625 32.6639 20.0493 35.7507 23.8571 35.7507C25.7108 35.7507 27.3937 35.0191 28.6327 33.829C28.9471 33.9963 29.2866 34.1475 29.6315 34.2745C28.187 35.8133 26.1343 36.7746 23.8571 36.7746C19.4838 36.7746 15.9386 33.2294 15.9386 28.8561V9.32594H13.9928V8.30207ZM30.9187 32.4426C30.5815 32.3491 30.268 32.2052 29.9803 32.0282C30.4732 31.0786 30.7517 29.9999 30.7517 28.8561V8.814V8.30207H31.2636H33.6552V9.32594H31.7756V28.8561C31.7756 30.1471 31.4666 31.3659 30.9187 32.4426ZM19.5294 20.4264C19.4587 20.4264 19.4014 20.4837 19.4014 20.5544C19.4014 20.6251 19.4587 20.6824 19.5294 20.6824H28.1317C28.2024 20.6824 28.2597 20.6251 28.2597 20.5544C28.2597 20.4837 28.2024 20.4264 28.1317 20.4264H19.5294Z" fill="url(#paint50_linear_640_20598)"></path>
  <path fill-rule="evenodd" clip-rule="evenodd" d="M20.095 31.7394V31.4012L21.1217 31.1476V23.1213L20.095 22.8797V22.5415H24.0025C24.6266 22.5415 25.1782 22.6422 25.6573 22.8435C26.1404 23.0408 26.5169 23.3347 26.7866 23.7252C27.0604 24.1117 27.1973 24.5888 27.1973 25.1565C27.1973 25.7444 27.0322 26.2315 26.7021 26.6181C26.376 27.0006 25.917 27.2743 25.3251 27.4394L26.7108 29.547C27.4091 30.6091 28.3323 31.5048 29.4151 32.1706C31.2864 33.3213 33.6021 33.4846 35.6163 32.6079L37.1937 31.9214L36.3288 32.5434C33.9392 34.2619 30.7634 34.4175 28.2173 32.9406C26.8574 32.1518 25.7109 31.0425 24.8776 29.7093L23.5797 27.6327H22.7101V31.1476L24.075 31.4012V31.7394H20.095ZM23.2346 27.0892H22.7092V23.0851H23.3795C23.6251 23.0851 23.8285 23.0972 23.9895 23.1213C24.1546 23.1414 24.3056 23.1797 24.4425 23.2361C24.7766 23.3689 25.0404 23.5863 25.2336 23.8883C25.4269 24.1903 25.5235 24.5728 25.5235 25.0358C25.5235 25.2894 25.4853 25.5391 25.4088 25.7847C25.3363 26.0262 25.2115 26.2457 25.0343 26.443C24.8612 26.6402 24.6357 26.7973 24.3579 26.914C24.0801 27.0308 23.7057 27.0892 23.2346 27.0892Z" fill="url(#paint51_linear_640_20598)"></path>
  <defs>
    <linearGradient id="paint0_linear_640_20598" x1="210.754" y1="28.103" x2="209.041" y2="-2.03499" gradientUnits="userSpaceOnUse">
      <stop stop-color="#013A2F"></stop>
      <stop offset="1" stop-color="#01594B"></stop>
    </linearGradient>
    <linearGradient id="paint1_linear_640_20598" x1="210.754" y1="28.103" x2="209.041" y2="-2.03499" gradientUnits="userSpaceOnUse">
      <stop stop-color="#013A2F"></stop>
      <stop offset="1" stop-color="#01594B"></stop>
    </linearGradient>
    <linearGradient id="paint2_linear_640_20598" x1="210.754" y1="28.103" x2="209.041" y2="-2.03499" gradientUnits="userSpaceOnUse">
      <stop stop-color="#013A2F"></stop>
      <stop offset="1" stop-color="#01594B"></stop>
    </linearGradient>
    <linearGradient id="paint3_linear_640_20598" x1="210.754" y1="28.103" x2="209.041" y2="-2.03499" gradientUnits="userSpaceOnUse">
      <stop stop-color="#013A2F"></stop>
      <stop offset="1" stop-color="#01594B"></stop>
    </linearGradient>
    <linearGradient id="paint4_linear_640_20598" x1="210.754" y1="28.103" x2="209.041" y2="-2.03499" gradientUnits="userSpaceOnUse">
      <stop stop-color="#013A2F"></stop>
      <stop offset="1" stop-color="#01594B"></stop>
    </linearGradient>
    <linearGradient id="paint5_linear_640_20598" x1="210.754" y1="28.103" x2="209.041" y2="-2.03499" gradientUnits="userSpaceOnUse">
      <stop stop-color="#013A2F"></stop>
      <stop offset="1" stop-color="#01594B"></stop>
    </linearGradient>
    <linearGradient id="paint6_linear_640_20598" x1="210.754" y1="28.103" x2="209.041" y2="-2.03499" gradientUnits="userSpaceOnUse">
      <stop stop-color="#013A2F"></stop>
      <stop offset="1" stop-color="#01594B"></stop>
    </linearGradient>
    <linearGradient id="paint7_linear_640_20598" x1="210.754" y1="28.103" x2="209.041" y2="-2.03499" gradientUnits="userSpaceOnUse">
      <stop stop-color="#013A2F"></stop>
      <stop offset="1" stop-color="#01594B"></stop>
    </linearGradient>
    <linearGradient id="paint8_linear_640_20598" x1="86.6659" y1="35.0196" x2="86.927" y2="44.6692" gradientUnits="userSpaceOnUse">
      <stop stop-color="#C05C00"></stop>
      <stop offset="0.510417" stop-color="#FFB800"></stop>
      <stop offset="0.854167" stop-color="#924400"></stop>
    </linearGradient>
    <linearGradient id="paint9_linear_640_20598" x1="86.6659" y1="35.0196" x2="86.927" y2="44.6692" gradientUnits="userSpaceOnUse">
      <stop stop-color="#C05C00"></stop>
      <stop offset="0.510417" stop-color="#FFB800"></stop>
      <stop offset="0.854167" stop-color="#924400"></stop>
    </linearGradient>
    <linearGradient id="paint10_linear_640_20598" x1="86.6659" y1="35.0196" x2="86.927" y2="44.6692" gradientUnits="userSpaceOnUse">
      <stop stop-color="#C05C00"></stop>
      <stop offset="0.510417" stop-color="#FFB800"></stop>
      <stop offset="0.854167" stop-color="#924400"></stop>
    </linearGradient>
    <linearGradient id="paint11_linear_640_20598" x1="86.6659" y1="35.0196" x2="86.927" y2="44.6692" gradientUnits="userSpaceOnUse">
      <stop stop-color="#C05C00"></stop>
      <stop offset="0.510417" stop-color="#FFB800"></stop>
      <stop offset="0.854167" stop-color="#924400"></stop>
    </linearGradient>
    <linearGradient id="paint12_linear_640_20598" x1="86.6659" y1="35.0196" x2="86.927" y2="44.6692" gradientUnits="userSpaceOnUse">
      <stop stop-color="#C05C00"></stop>
      <stop offset="0.510417" stop-color="#FFB800"></stop>
      <stop offset="0.854167" stop-color="#924400"></stop>
    </linearGradient>
    <linearGradient id="paint13_linear_640_20598" x1="86.6659" y1="35.0196" x2="86.927" y2="44.6692" gradientUnits="userSpaceOnUse">
      <stop stop-color="#C05C00"></stop>
      <stop offset="0.510417" stop-color="#FFB800"></stop>
      <stop offset="0.854167" stop-color="#924400"></stop>
    </linearGradient>
    <linearGradient id="paint14_linear_640_20598" x1="86.6659" y1="35.0196" x2="86.927" y2="44.6692" gradientUnits="userSpaceOnUse">
      <stop stop-color="#C05C00"></stop>
      <stop offset="0.510417" stop-color="#FFB800"></stop>
      <stop offset="0.854167" stop-color="#924400"></stop>
    </linearGradient>
    <linearGradient id="paint15_linear_640_20598" x1="86.6659" y1="35.0196" x2="86.927" y2="44.6692" gradientUnits="userSpaceOnUse">
      <stop stop-color="#C05C00"></stop>
      <stop offset="0.510417" stop-color="#FFB800"></stop>
      <stop offset="0.854167" stop-color="#924400"></stop>
    </linearGradient>
    <linearGradient id="paint16_linear_640_20598" x1="86.6659" y1="35.0196" x2="86.927" y2="44.6692" gradientUnits="userSpaceOnUse">
      <stop stop-color="#C05C00"></stop>
      <stop offset="0.510417" stop-color="#FFB800"></stop>
      <stop offset="0.854167" stop-color="#924400"></stop>
    </linearGradient>
    <linearGradient id="paint17_linear_640_20598" x1="86.6659" y1="35.0196" x2="86.927" y2="44.6692" gradientUnits="userSpaceOnUse">
      <stop stop-color="#C05C00"></stop>
      <stop offset="0.510417" stop-color="#FFB800"></stop>
      <stop offset="0.854167" stop-color="#924400"></stop>
    </linearGradient>
    <linearGradient id="paint18_linear_640_20598" x1="55.6738" y1="37.1319" x2="55.6947" y2="38.3022" gradientUnits="userSpaceOnUse">
      <stop stop-color="#883900"></stop>
      <stop offset="0.538615" stop-color="#FFC226"></stop>
      <stop offset="0.854167" stop-color="#9A4901"></stop>
    </linearGradient>
    <linearGradient id="paint19_linear_640_20598" x1="193.042" y1="37.1319" x2="193.063" y2="38.3022" gradientUnits="userSpaceOnUse">
      <stop stop-color="#883900"></stop>
      <stop offset="0.538615" stop-color="#FFC226"></stop>
      <stop offset="0.854167" stop-color="#9A4901"></stop>
    </linearGradient>
    <linearGradient id="paint20_linear_640_20598" x1="211.489" y1="27.4897" x2="209.777" y2="-2.64827" gradientUnits="userSpaceOnUse">
      <stop stop-color="#013A2F"></stop>
      <stop offset="1" stop-color="#01594B"></stop>
    </linearGradient>
    <linearGradient id="paint21_linear_640_20598" x1="211.489" y1="27.4897" x2="209.777" y2="-2.64827" gradientUnits="userSpaceOnUse">
      <stop stop-color="#013A2F"></stop>
      <stop offset="1" stop-color="#01594B"></stop>
    </linearGradient>
    <linearGradient id="paint22_linear_640_20598" x1="211.489" y1="27.4897" x2="209.777" y2="-2.64827" gradientUnits="userSpaceOnUse">
      <stop stop-color="#013A2F"></stop>
      <stop offset="1" stop-color="#01594B"></stop>
    </linearGradient>
    <linearGradient id="paint23_linear_640_20598" x1="211.489" y1="27.4897" x2="209.777" y2="-2.64827" gradientUnits="userSpaceOnUse">
      <stop stop-color="#013A2F"></stop>
      <stop offset="1" stop-color="#01594B"></stop>
    </linearGradient>
    <linearGradient id="paint24_linear_640_20598" x1="211.489" y1="27.4897" x2="209.777" y2="-2.64827" gradientUnits="userSpaceOnUse">
      <stop stop-color="#013A2F"></stop>
      <stop offset="1" stop-color="#01594B"></stop>
    </linearGradient>
    <linearGradient id="paint25_linear_640_20598" x1="211.489" y1="27.4897" x2="209.777" y2="-2.64827" gradientUnits="userSpaceOnUse">
      <stop stop-color="#013A2F"></stop>
      <stop offset="1" stop-color="#01594B"></stop>
    </linearGradient>
    <linearGradient id="paint26_linear_640_20598" x1="211.489" y1="27.4897" x2="209.777" y2="-2.64827" gradientUnits="userSpaceOnUse">
      <stop stop-color="#013A2F"></stop>
      <stop offset="1" stop-color="#01594B"></stop>
    </linearGradient>
    <linearGradient id="paint27_linear_640_20598" x1="211.489" y1="27.4897" x2="209.777" y2="-2.64827" gradientUnits="userSpaceOnUse">
      <stop stop-color="#013A2F"></stop>
      <stop offset="1" stop-color="#01594B"></stop>
    </linearGradient>
    <linearGradient id="paint28_linear_640_20598" x1="87.4016" y1="34.4063" x2="87.6627" y2="44.056" gradientUnits="userSpaceOnUse">
      <stop stop-color="#C05C00"></stop>
      <stop offset="0.510417" stop-color="#FFB800"></stop>
      <stop offset="0.854167" stop-color="#924400"></stop>
    </linearGradient>
    <linearGradient id="paint29_linear_640_20598" x1="87.4016" y1="34.4063" x2="87.6627" y2="44.056" gradientUnits="userSpaceOnUse">
      <stop stop-color="#C05C00"></stop>
      <stop offset="0.510417" stop-color="#FFB800"></stop>
      <stop offset="0.854167" stop-color="#924400"></stop>
    </linearGradient>
    <linearGradient id="paint30_linear_640_20598" x1="87.4016" y1="34.4063" x2="87.6627" y2="44.056" gradientUnits="userSpaceOnUse">
      <stop stop-color="#C05C00"></stop>
      <stop offset="0.510417" stop-color="#FFB800"></stop>
      <stop offset="0.854167" stop-color="#924400"></stop>
    </linearGradient>
    <linearGradient id="paint31_linear_640_20598" x1="87.4016" y1="34.4063" x2="87.6627" y2="44.056" gradientUnits="userSpaceOnUse">
      <stop stop-color="#C05C00"></stop>
      <stop offset="0.510417" stop-color="#FFB800"></stop>
      <stop offset="0.854167" stop-color="#924400"></stop>
    </linearGradient>
    <linearGradient id="paint32_linear_640_20598" x1="87.4016" y1="34.4063" x2="87.6627" y2="44.056" gradientUnits="userSpaceOnUse">
      <stop stop-color="#C05C00"></stop>
      <stop offset="0.510417" stop-color="#FFB800"></stop>
      <stop offset="0.854167" stop-color="#924400"></stop>
    </linearGradient>
    <linearGradient id="paint33_linear_640_20598" x1="87.4016" y1="34.4063" x2="87.6627" y2="44.056" gradientUnits="userSpaceOnUse">
      <stop stop-color="#C05C00"></stop>
      <stop offset="0.510417" stop-color="#FFB800"></stop>
      <stop offset="0.854167" stop-color="#924400"></stop>
    </linearGradient>
    <linearGradient id="paint34_linear_640_20598" x1="87.4016" y1="34.4063" x2="87.6627" y2="44.056" gradientUnits="userSpaceOnUse">
      <stop stop-color="#C05C00"></stop>
      <stop offset="0.510417" stop-color="#FFB800"></stop>
      <stop offset="0.854167" stop-color="#924400"></stop>
    </linearGradient>
    <linearGradient id="paint35_linear_640_20598" x1="87.4016" y1="34.4063" x2="87.6627" y2="44.056" gradientUnits="userSpaceOnUse">
      <stop stop-color="#C05C00"></stop>
      <stop offset="0.510417" stop-color="#FFB800"></stop>
      <stop offset="0.854167" stop-color="#924400"></stop>
    </linearGradient>
    <linearGradient id="paint36_linear_640_20598" x1="87.4016" y1="34.4063" x2="87.6627" y2="44.056" gradientUnits="userSpaceOnUse">
      <stop stop-color="#C05C00"></stop>
      <stop offset="0.510417" stop-color="#FFB800"></stop>
      <stop offset="0.854167" stop-color="#924400"></stop>
    </linearGradient>
    <linearGradient id="paint37_linear_640_20598" x1="87.4016" y1="34.4063" x2="87.6627" y2="44.056" gradientUnits="userSpaceOnUse">
      <stop stop-color="#C05C00"></stop>
      <stop offset="0.510417" stop-color="#FFB800"></stop>
      <stop offset="0.854167" stop-color="#924400"></stop>
    </linearGradient>
    <linearGradient id="paint38_linear_640_20598" x1="56.4095" y1="36.5186" x2="56.4305" y2="37.6889" gradientUnits="userSpaceOnUse">
      <stop stop-color="#883900"></stop>
      <stop offset="0.538615" stop-color="#FFC226"></stop>
      <stop offset="0.854167" stop-color="#9A4901"></stop>
    </linearGradient>
    <linearGradient id="paint39_linear_640_20598" x1="193.778" y1="36.5186" x2="193.799" y2="37.6889" gradientUnits="userSpaceOnUse">
      <stop stop-color="#883900"></stop>
      <stop offset="0.538615" stop-color="#FFC226"></stop>
      <stop offset="0.854167" stop-color="#9A4901"></stop>
    </linearGradient>
    <linearGradient id="paint40_linear_640_20598" x1="48.0392" y1="50" x2="22.4257" y2="-9.63237" gradientUnits="userSpaceOnUse">
      <stop stop-color="#013A2F"></stop>
      <stop offset="1" stop-color="#01594B"></stop>
    </linearGradient>
    <linearGradient id="paint41_linear_640_20598" x1="4.42519" y1="9.65958" x2="18.3082" y2="53.1668" gradientUnits="userSpaceOnUse">
      <stop stop-color="#C05C00"></stop>
      <stop offset="0.510417" stop-color="#FFB800"></stop>
      <stop offset="0.854167" stop-color="#924400"></stop>
    </linearGradient>
    <linearGradient id="paint42_linear_640_20598" x1="10.8712" y1="22.8236" x2="9.92182" y2="22.5685" gradientUnits="userSpaceOnUse">
      <stop stop-color="#CF8900"></stop>
      <stop offset="0.538615" stop-color="#FFDC26"></stop>
      <stop offset="0.854167" stop-color="#CB8600"></stop>
    </linearGradient>
    <linearGradient id="paint43_linear_640_20598" x1="22.4057" y1="40.7909" x2="23.3045" y2="43.7255" gradientUnits="userSpaceOnUse">
      <stop stop-color="#883900"></stop>
      <stop offset="0.538615" stop-color="#FFC226"></stop>
      <stop offset="0.854167" stop-color="#9A4901"></stop>
    </linearGradient>
    <linearGradient id="paint44_linear_640_20598" x1="28.4496" y1="39.5927" x2="29.0488" y2="41.5491" gradientUnits="userSpaceOnUse">
      <stop stop-color="#883900"></stop>
      <stop offset="0.538615" stop-color="#FFC226"></stop>
      <stop offset="0.854167" stop-color="#9A4901"></stop>
    </linearGradient>
    <linearGradient id="paint45_linear_640_20598" x1="17.5391" y1="39.7558" x2="18.1382" y2="41.7122" gradientUnits="userSpaceOnUse">
      <stop stop-color="#883900"></stop>
      <stop offset="0.538615" stop-color="#FFC226"></stop>
      <stop offset="0.854167" stop-color="#9A4901"></stop>
    </linearGradient>
    <linearGradient id="paint46_linear_640_20598" x1="39.6758" y1="25.3312" x2="40.6783" y2="25.2069" gradientUnits="userSpaceOnUse">
      <stop stop-color="#CF8900"></stop>
      <stop offset="0.538615" stop-color="#FFDC26"></stop>
      <stop offset="0.854167" stop-color="#CB8600"></stop>
    </linearGradient>
    <linearGradient id="paint47_linear_640_20598" x1="9.54953" y1="25.3312" x2="10.552" y2="25.2069" gradientUnits="userSpaceOnUse">
      <stop stop-color="#CF8900"></stop>
      <stop offset="0.538615" stop-color="#FFDC26"></stop>
      <stop offset="0.854167" stop-color="#CB8600"></stop>
    </linearGradient>
    <linearGradient id="paint48_linear_640_20598" x1="37.1436" y1="22.8236" x2="38.093" y2="22.5685" gradientUnits="userSpaceOnUse">
      <stop stop-color="#CF8900"></stop>
      <stop offset="0.538615" stop-color="#FFDC26"></stop>
      <stop offset="0.854167" stop-color="#CB8600"></stop>
    </linearGradient>
    <linearGradient id="paint49_linear_640_20598" x1="11.2885" y1="8.91858" x2="36.0288" y2="26.5155" gradientUnits="userSpaceOnUse">
      <stop stop-color="#883900"></stop>
      <stop offset="0.551949" stop-color="#FFC226"></stop>
      <stop offset="1" stop-color="#9A4901"></stop>
    </linearGradient>
    <linearGradient id="paint50_linear_640_20598" x1="12.3542" y1="12.5429" x2="27.5711" y2="37.8707" gradientUnits="userSpaceOnUse">
      <stop stop-color="#823600"></stop>
      <stop offset="0.421875" stop-color="#FFC052"></stop>
      <stop offset="1" stop-color="#844208"></stop>
    </linearGradient>
    <linearGradient id="paint51_linear_640_20598" x1="5.76248" y1="17.268" x2="14.3018" y2="44.5925" gradientUnits="userSpaceOnUse">
      <stop stop-color="#883900"></stop>
      <stop offset="0.457011" stop-color="#FFC226"></stop>
      <stop offset="1" stop-color="#9A4901"></stop>
    </linearGradient>
    <clipPath id="clip0_640_20598">
      <rect width="22" height="49" fill="white"></rect>
    </clipPath>
  </defs>
</svg>
