<svg xmlns="http://www.w3.org/2000/svg" viewBox="0 0 48 48"><defs><style>.cls-1{fill:#42a5f5;}.cls-2{fill:#424242;}</style></defs><title>Text</title><g id="Text"><path class="cls-1" d="M39,20.24C39,7.47,39,9,38.89,8.56S39.79,9.72,32.8.4C32.22-.18,34,0,4,0A1,1,0,0,0,3,1V47a1,1,0,0,0,1,1H38a1,1,0,0,0,1-1V39.77a19.05,19.05,0,0,0-2-.93V46H5V2H31V9a1,1,0,0,0,1,1h5V21.17C37.68,20.89,38.35,20.58,39,20.24Z"/><path class="cls-2" d="M28,10H8A1,1,0,0,1,8,8H28A1,1,0,0,1,28,10Z"/><path class="cls-2" d="M28,14H8a1,1,0,0,1,0-2H28A1,1,0,0,1,28,14Z"/><path class="cls-2" d="M28,18H8a1,1,0,0,1,0-2H28A1,1,0,0,1,28,18Z"/><path class="cls-2" d="M22,22H8a1,1,0,0,1,0-2H22A1,1,0,0,1,22,22Z"/><path class="cls-1" d="M42,33V27a3,3,0,0,1,0,6Z"/><path class="cls-2" d="M41.49,21.14a27.71,27.71,0,0,1-10.4,3.69c-1.54.22-.35.17-6.09.17a5,5,0,0,0-1,9.9V42a1,1,0,0,0,1,1h5a1,1,0,0,0,1-1c0-2.77.2-2.21-1-3.41V35c10.15,1.45,11.09,4.66,12.49,3.86.73-.41.51.32.51-16.87A1,1,0,0,0,41.49,21.14ZM22,30a3,3,0,0,1,3-3h4v6H25A3,3,0,0,1,22,30Zm7,11H26V35h2c0,5.08-.27,4.15,1,5.41Zm12-4.71a30,30,0,0,0-10-3.16V26.87a30,30,0,0,0,10-3.16Z"/></g></svg>