<?xml version="1.0" encoding="utf-8"?>
<!-- Generator: Adobe Illustrator 22.0.1, SVG Export Plug-In . SVG Version: 6.00 Build 0)  -->
<svg version="1.1" xmlns="http://www.w3.org/2000/svg" xmlns:xlink="http://www.w3.org/1999/xlink" x="0px" y="0px"
	 viewBox="0 0 512 512" style="enable-background:new 0 0 512 512;" xml:space="preserve">
<style type="text/css">
	.st0{fill:#7585F0;stroke:#000000;stroke-width:20;stroke-linecap:round;stroke-linejoin:round;stroke-miterlimit:10;}
	.st1{fill:none;stroke:#000000;stroke-width:20;stroke-linecap:round;stroke-linejoin:round;stroke-miterlimit:10;}
	.st2{fill:#FFFFFF;}
	.st3{fill:#E4B75C;stroke:#000000;stroke-width:20;stroke-linecap:round;stroke-linejoin:round;stroke-miterlimit:10;}
	.st4{fill:#DE5A5A;stroke:#000000;stroke-width:20;stroke-linecap:round;stroke-linejoin:round;stroke-miterlimit:10;}
	.st5{fill:#D4F4FF;}
	.st6{fill:#D4F4FF;stroke:#000000;stroke-width:20;stroke-linecap:round;stroke-linejoin:round;stroke-miterlimit:10;}
	.st7{fill:#F2DF98;stroke:#000000;stroke-width:20;stroke-linecap:round;stroke-linejoin:round;stroke-miterlimit:10;}
	.st8{fill:#FFFFFF;stroke:#000000;stroke-width:20;stroke-linecap:round;stroke-linejoin:round;stroke-miterlimit:10;}
	.st9{fill:#87BF8C;stroke:#000000;stroke-width:20;stroke-linecap:round;stroke-linejoin:round;stroke-miterlimit:10;}
	.st10{fill:#7585F0;}
	.st11{fill:#EDD4B4;stroke:#000000;stroke-width:20;stroke-linecap:round;stroke-linejoin:round;stroke-miterlimit:10;}
	.st12{fill:#E4B75C;}
	.st13{fill:#AACF9A;stroke:#000000;stroke-width:20;stroke-linecap:round;stroke-linejoin:round;stroke-miterlimit:10;}
	.st14{fill:#E8C673;stroke:#000000;stroke-width:20;stroke-linecap:round;stroke-linejoin:round;stroke-miterlimit:10;}
	.st15{fill:#F2DF98;}
	.st16{fill:#D0524E;stroke:#000000;stroke-width:20;stroke-linecap:round;stroke-linejoin:round;stroke-miterlimit:10;}
	.st17{fill:#87BF8C;}
	.st18{fill:#AACF9A;}
	.st19{fill:#DE5A5A;}
	.st20{fill:#E8C673;}
	.st21{fill:#7ACBAA;}
	.st22{fill:#EFCDC2;}
	.st23{fill:#6B7DFA;stroke:#000000;stroke-width:20;stroke-linecap:round;stroke-linejoin:round;stroke-miterlimit:10;}
</style>
<g id="GUIDELINES">
</g>
<g id="ICON_1_">
	<g>
		<g>
			<g>
				<path class="st2" d="M390.3,397.3c0,14.4-11.6,26-26,26l-281.5,0c-14.4,0-26,11.6-26,26v0c0,14.4,11.6,26,26,26h301.5
					c25.5,0,46.2-20.7,46.2-46.2v-354c0-14.4-11.6-26-26-26h-14.2"/>
				<g>
					<g>
						<g>
							<path class="st5" d="M114,420.4V10H82.8c-14.4,0-26,11.6-26,26v413.4"/>
						</g>
					</g>
				</g>
				<path class="st10" d="M114,423.4h250.2c14.4,0,26-11.6,26-26V36c0-14.4-11.6-26-26-26H114"/>
				<path class="st1" d="M430.4,275.6V75.2c0-14.4-11.6-26-26-26h-14.2"/>
				<line class="st1" x1="200.4" y1="475.4" x2="384.3" y2="475.4"/>
				<path class="st1" d="M307,423.4l-224.2,0c-14.4,0-26,11.6-26,26v0c0,14.4,11.6,26,26,26H119"/>
				<path class="st1" d="M390.3,89.2V36c0-14.4-11.6-26-26-26H114"/>
				<line class="st1" x1="390.3" y1="275.6" x2="390.3" y2="153.6"/>
				<line class="st1" x1="123.8" y1="423.4" x2="307" y2="423.4"/>
				<g>
					<path class="st1" d="M114,356.9V10H82.8c-14.4,0-26,11.6-26,26v413.4"/>
				</g>
				<path class="st4" d="M123.8,423.4v71.8c0,5.2,5.5,8.5,10,6.1l28.3-14.8l28.3,14.8c4.6,2.4,10-0.9,10-6.1v-71.8H123.8z"/>
			</g>
		</g>
		<g>
			<path class="st7" d="M423.2,475.4h-80.1c-17.7,0-32-14.3-32-32V320.8l-20.5-42.4h164.6v164.9
				C455.2,461.1,440.9,475.4,423.2,475.4z"/>
			<line class="st1" x1="314.2" y1="359.2" x2="357.5" y2="359.2"/>
			<line class="st1" x1="314.2" y1="398.1" x2="341.8" y2="398.1"/>
		</g>
		<g>
			<g>
				<g>
					<polygon class="st8" points="231.9,104.9 185.1,104.9 161.7,145.5 185.1,186.1 231.9,186.1 255.3,145.5 					"/>
					<polygon class="st6" points="302.1,64.3 255.3,64.3 231.9,104.9 255.3,145.5 302.1,145.5 325.5,104.9 					"/>
					<polygon class="st7" points="302.1,145.5 255.3,145.5 231.9,186.1 255.3,226.6 302.1,226.6 325.5,186.1 					"/>
				</g>
			</g>
		</g>
		<line class="st1" x1="239.2" y1="278.4" x2="181.4" y2="278.4"/>
		<line class="st1" x1="385.5" y1="320.3" x2="181.4" y2="320.3"/>
	</g>
</g>
</svg>
